<?xml version="1.0" standalone="no"?>
<!DOCTYPE svg PUBLIC "-//W3C//DTD SVG 20010904//EN"
 "http://www.w3.org/TR/2001/REC-SVG-20010904/DTD/svg10.dtd">
<svg version="1.0" xmlns="http://www.w3.org/2000/svg"
 width="868.000000pt" height="326.000000pt" viewBox="0 0 868.000000 326.000000"
 preserveAspectRatio="xMidYMid meet">

<g transform="translate(0.000000,326.000000) scale(0.100000,-0.100000)"
fill="#000000" stroke="none">
<path d="M0 2270 l0 -990 47 0 c57 0 53 -8 -5 -11 l-42 -3 0 -368 0 -368 125
0 c104 0 125 2 125 15 0 8 5 15 10 15 6 0 10 -7 10 -15 0 -8 8 -15 18 -15 10
0 23 -5 29 -11 6 -6 19 -9 29 -6 16 4 15 5 -4 6 -19 1 -21 4 -12 21 6 11 8 42
4 73 -4 36 -3 57 5 61 8 5 11 -15 11 -68 l0 -76 29 0 c25 0 28 3 23 25 -7 41
7 115 24 115 8 0 14 -9 14 -19 0 -14 5 -18 20 -14 17 5 20 0 21 -28 1 -19 0
-44 -1 -56 -1 -19 4 -23 25 -23 l25 0 -6 81 -6 82 39 -7 c31 -6 36 -5 26 5 -7
7 -13 23 -13 35 0 17 -5 20 -25 16 -23 -4 -25 -2 -25 36 0 35 -2 39 -20 35
-18 -5 -20 -14 -20 -79 0 -55 -3 -74 -13 -74 -10 0 -14 14 -15 43 0 23 -5 60
-10 82 l-10 40 -2 -35 c-3 -31 -3 -32 -7 -8 -2 16 -9 28 -14 28 -5 0 -9 18 -9
40 0 38 -2 40 -30 40 -16 0 -30 -4 -30 -9 0 -4 12 -6 26 -3 25 4 25 4 22 -49
-2 -41 -7 -55 -20 -57 -12 -2 -18 5 -20 27 l-3 29 -38 -13 -37 -13 -1 32 c-2
30 -2 30 -6 3 -4 -26 -33 -39 -33 -14 0 6 -5 4 -11 -7 -9 -15 -13 -16 -20 -5
-5 9 -9 -31 -10 -101 -1 -63 -4 -101 -6 -83 -3 23 -8 30 -19 26 -18 -7 -18 -3
2 35 22 46 15 112 -14 123 -21 8 -22 6 -22 -36 0 -33 -4 -45 -15 -45 -11 0
-15 14 -16 58 -1 31 -3 49 -6 40 -3 -11 -14 -18 -28 -18 -18 0 -25 7 -30 30
-4 16 -4 34 0 40 11 18 42 11 53 -12 10 -21 11 -21 9 -3 -2 19 3 20 88 19 72
-2 79 -1 35 5 -30 3 -54 9 -52 14 1 4 2 10 2 15 0 4 31 6 70 4 61 -3 69 -2 64
12 -5 14 5 16 74 16 l80 0 6 -30 6 -30 82 0 c132 0 128 3 128 -101 0 -77 -2
-88 -16 -82 -9 3 -20 0 -26 -8 -7 -10 -8 -4 -4 18 3 21 2 32 -5 30 -6 -1 -13
9 -15 22 -7 41 -14 37 -14 -7 0 -23 -5 -42 -10 -42 -6 0 -3 -11 7 -24 14 -20
24 -24 49 -20 29 4 32 3 30 -21 0 -14 -7 -25 -13 -25 -9 0 -13 -17 -13 -51 l0
-50 228 5 c125 3 282 5 350 6 l123 0 -7 112 c-11 188 -15 202 -47 206 -15 2
-27 8 -27 13 0 6 -9 5 -21 -2 -16 -8 -23 -8 -29 1 -5 8 -10 4 -15 -12 -23 -67
-21 -65 -34 -35 -24 59 -18 67 52 67 36 0 68 -5 75 -12 8 -8 12 -9 12 -1 0 7
26 13 63 16 73 5 171 -19 163 -40 -3 -7 1 -13 8 -13 21 0 25 -21 27 -151 l1
-121 29 28 c23 22 29 37 30 73 1 53 5 46 14 -21 5 -40 10 -48 27 -48 19 0 20
4 16 95 -3 74 -1 95 9 95 8 0 15 -6 18 -12 3 -10 12 -152 15 -220 0 -5 16 -8
36 -8 31 0 35 3 29 20 -5 16 -2 20 14 20 12 0 21 3 22 8 31 369 28 352 58 352
l26 0 0 -173 c0 -94 1 -177 3 -183 2 -7 13 -10 25 -8 22 5 22 4 0 -7 -32 -17
-29 -26 7 -21 18 3 30 0 30 -7 0 -7 23 -11 60 -11 55 0 60 2 66 25 7 28 24 24
24 -6 0 -24 30 -26 31 -1 1 9 1 21 0 25 -1 4 20 7 46 5 42 -3 48 -6 51 -28 l4
-24 13 23 c9 17 11 57 7 137 -4 97 -3 114 10 114 16 0 28 -73 28 -174 0 -60
11 -84 28 -64 7 9 8 45 2 118 -6 64 -6 108 0 114 13 13 19 -22 24 -148 5 -108
12 -139 23 -98 3 12 9 22 13 22 5 0 4 15 -1 32 -5 18 -9 73 -9 121 0 79 2 88
18 85 15 -3 18 -20 23 -138 3 -74 7 -136 8 -137 0 -2 8 -3 17 -3 8 0 13 4 10
8 -2 4 -1 14 5 22 7 12 9 10 9 -7 0 -23 2 -23 130 -23 115 0 129 2 123 16 -4
12 -1 15 13 12 10 -2 18 -10 17 -16 -2 -8 12 -12 45 -11 46 2 46 2 12 9 l-35
7 43 2 c29 1 41 -3 36 -10 -4 -8 4 -9 27 -4 19 4 48 7 64 7 17 -1 37 3 45 8
13 9 13 10 0 10 -13 0 -13 1 0 10 12 8 12 10 -5 10 -17 0 -17 2 -5 10 8 5 10
10 5 10 -6 0 -11 9 -11 20 0 11 3 20 6 20 3 0 6 10 7 23 2 95 3 103 15 82 6
-11 11 -38 10 -60 l-1 -40 14 35 c7 19 14 45 14 57 1 25 35 48 57 39 9 -4 14
2 15 17 1 17 2 18 6 5 2 -10 11 -18 18 -18 11 0 15 -23 17 -102 l3 -103 37 -3
c45 -4 47 2 51 127 2 55 7 86 15 89 9 3 12 -25 13 -105 0 -59 4 -117 8 -128 7
-18 9 -18 23 10 13 25 15 54 7 102 -1 4 -1 36 0 71 2 101 18 71 23 -43 3 -58
7 -107 9 -109 2 -2 39 -6 81 -8 l77 -3 -6 172 -6 173 60 0 60 0 7 -72 c4 -40
9 -116 13 -170 l6 -96 30 -6 c16 -3 98 -6 182 -6 l153 0 -4 -22 -5 -23 12 23
c12 22 39 31 39 11 0 -6 7 -4 15 5 11 11 15 40 15 120 0 58 3 106 8 107 38 4
72 3 72 -2 0 -3 11 -4 25 -1 23 4 25 1 25 -31 0 -29 -4 -36 -25 -41 -19 -5
-33 -23 -56 -72 -16 -37 -28 -69 -25 -71 3 -3 43 -8 90 -10 63 -4 86 -9 86
-19 0 -8 5 -14 10 -14 6 0 10 7 10 15 0 13 21 15 129 15 123 0 131 1 145 22
14 20 16 20 16 4 0 -13 5 -17 20 -13 11 3 23 1 26 -4 3 -6 15 -7 27 -3 11 4
50 6 86 5 72 -3 98 -3 121 0 8 1 34 1 57 1 36 -2 41 -5 36 -19 -5 -14 -1 -13
16 5 25 25 56 29 65 7 4 -11 13 -14 29 -10 18 5 24 2 24 -10 0 -10 -6 -14 -14
-10 -11 4 -13 -2 -8 -25 l7 -30 -536 0 -536 0 0 -32 0 -31 -112 6 c-62 4 -132
7 -155 7 -39 0 -43 2 -43 25 0 14 -4 25 -10 25 -5 0 -10 -11 -10 -25 0 -16 -6
-25 -15 -25 -9 0 -15 9 -15 23 l0 24 -1047 6 c-577 3 -1392 4 -1813 0 -421 -3
-762 -3 -759 1 3 3 29 8 57 9 84 6 72 17 -16 17 l-82 0 0 -260 0 -260 44 0 45
0 4 48 3 47 4 -50 3 -50 6 60 c6 58 7 60 37 63 28 3 32 0 38 -29 3 -17 6 -44
6 -60 0 -24 4 -29 25 -29 23 0 25 4 26 48 1 79 17 97 18 20 l1 -68 70 0 70 0
0 43 c1 23 7 56 15 72 13 29 13 27 14 -42 l1 -73 65 0 65 0 0 39 c0 36 14 61
27 48 2 -3 7 -23 10 -45 5 -34 9 -39 30 -39 22 0 24 3 19 31 -6 31 7 66 19 54
4 -3 9 -25 12 -47 7 -54 32 -56 34 -3 l2 37 7 -40 7 -40 2 43 c1 46 20 59 22
15 1 -26 2 -25 10 7 5 19 7 61 4 93 -5 45 -3 57 8 57 11 0 15 -22 20 -88 3
-48 8 -94 12 -103 7 -19 115 -25 127 -6 6 9 8 9 8 0 0 -10 30 -13 115 -13 119
0 120 0 115 44 -1 11 3 15 9 12 6 -4 11 -18 11 -32 0 -21 4 -24 39 -24 34 0
38 3 34 20 -7 26 14 26 22 0 5 -16 15 -20 49 -20 l43 0 -5 49 c-4 43 -2 49 14
48 11 -1 22 -11 26 -22 6 -19 6 -18 7 3 2 38 29 25 41 -19 9 -33 9 -44 -2 -50
-7 -5 66 -9 169 -9 l181 0 -34 81 c-19 44 -32 85 -28 90 3 5 22 9 43 9 37 0
37 -1 81 -90 40 -81 47 -90 72 -90 35 0 35 9 4 131 -13 52 -26 110 -28 129
l-3 35 47 1 c46 2 48 0 58 -30 l9 -31 -2 30 c-2 30 -1 30 51 32 49 2 52 0 52
-23 0 -14 7 -38 15 -54 8 -16 15 -33 14 -37 -4 -23 3 -33 22 -33 14 0 19 -5
16 -15 -4 -8 -3 -16 1 -19 5 -3 14 -28 22 -56 13 -47 30 -76 30 -51 0 17 -30
172 -41 214 -12 45 -12 45 28 53 l30 6 26 -104 c55 -216 66 -220 43 -13 -8 66
-13 121 -11 123 1 2 52 4 111 5 l109 2 6 -80 c14 -187 19 -215 40 -215 14 0
19 7 19 25 0 14 5 25 10 25 6 0 10 -11 10 -25 0 -23 4 -25 44 -25 38 0 45 3
49 23 l4 22 2 -22 c1 -16 7 -23 20 -23 26 0 36 17 20 36 -10 12 -9 13 5 8 9
-3 16 -15 16 -25 0 -13 7 -19 21 -19 16 0 19 4 14 20 -4 13 0 26 11 37 14 14
16 31 11 100 l-5 83 34 0 34 0 0 -59 c0 -106 11 -181 28 -181 10 0 13 8 10 29
-3 21 -1 28 9 24 7 -3 13 -16 13 -29 l0 -23 475 -1 475 0 -5 72 c-5 77 -12 88
-51 80 -14 -2 -24 0 -24 7 0 7 22 11 55 12 30 1 65 1 78 2 32 1 68 -13 62 -24
-4 -5 -1 -9 6 -9 9 0 10 -19 6 -70 -5 -57 -3 -70 9 -70 9 0 14 11 14 34 0 21
6 36 15 40 20 7 19 43 0 54 -10 5 -17 26 -20 53 -2 24 -6 79 -10 123 -6 63 -4
77 7 74 9 -3 14 -31 16 -100 2 -77 6 -97 19 -102 8 -4 21 -2 28 4 9 8 15 8 20
0 3 -5 14 -10 24 -10 17 0 18 -7 13 -85 -4 -80 -4 -85 15 -85 16 0 19 5 15 29
-3 23 1 30 17 36 15 4 21 15 21 36 0 25 -4 29 -27 29 -27 1 -27 1 -9 15 17 13
18 15 3 15 -9 0 -17 4 -17 9 0 5 20 8 45 7 25 0 45 -4 45 -8 0 -5 23 -8 50 -8
l50 0 0 -35 0 -35 -49 0 c-28 0 -53 -5 -57 -11 -4 -7 9 -10 42 -8 47 3 48 3
58 -31 l9 -35 6 30 c5 23 12 31 34 33 25 3 27 1 27 -32 0 -20 5 -36 10 -36 6
0 10 8 10 19 0 10 7 24 15 31 13 11 15 8 15 -19 0 -38 17 -41 22 -3 2 19 9 28
26 30 19 3 22 -1 22 -26 l0 -30 270 -1 c211 -1 269 2 267 12 -1 6 -6 15 -12
19 -5 4 31 7 80 6 88 -1 89 -2 26 -7 -38 -4 -66 -11 -69 -18 -3 -10 365 -13
1767 -13 l1771 1 0 1404 0 1405 -25 0 c-20 0 -25 5 -25 26 0 26 20 54 39 54 6
0 11 4 11 9 0 6 -21 12 -47 14 l-48 3 48 2 c43 2 47 4 47 27 0 23 -4 25 -44
25 -30 0 -46 5 -50 15 -4 10 1 15 17 16 12 1 33 2 47 3 22 1 25 6 28 43 3 40
2 42 -30 46 l-33 4 33 1 c24 2 32 7 32 21 0 11 -9 21 -21 24 -24 7 -20 33 5
29 13 -2 16 6 16 42 l0 46 -4340 0 -4340 0 0 -990z m2439 958 c-1 -17 -3 -18
-6 -6 -3 11 -17 18 -41 21 l-37 4 43 1 c38 2 42 0 41 -20z m2974 15 c-13 -2
-35 -2 -50 0 -16 2 -5 4 22 4 28 0 40 -2 28 -4z m1152 -3 c-33 -4 -82 -8 -110
-7 l-50 0 45 7 c25 4 74 7 110 7 l65 0 -60 -7z m-3315 -10 c0 -5 -4 -10 -10
-10 -5 0 -10 5 -10 10 0 6 5 10 10 10 6 0 10 -4 10 -10z m2033 3 c-13 -2 -33
-2 -45 0 -13 2 -3 4 22 4 25 0 35 -2 23 -4z m237 3 c0 -3 -4 -8 -10 -11 -5 -3
-10 -1 -10 4 0 6 5 11 10 11 6 0 10 -2 10 -4z m398 -17 c2 -5 8 -7 12 -4 5 3
60 8 122 10 62 3 146 8 186 11 49 4 72 2 72 -5 0 -6 -18 -11 -41 -11 -35 0
-40 -3 -34 -19 6 -21 -21 -26 -229 -37 -105 -6 -119 -5 -113 8 8 21 -30 28
-158 28 -117 0 -165 7 -165 25 0 9 40 11 173 7 94 -2 174 -9 175 -13z m429 15
c-3 -3 -12 -4 -19 -1 -8 3 -5 6 6 6 11 1 17 -2 13 -5z m50 0 c-3 -3 -12 -4
-19 -1 -8 3 -5 6 6 6 11 1 17 -2 13 -5z m-1979 -21 c-10 -2 -26 -2 -35 0 -10
3 -2 5 17 5 19 0 27 -2 18 -5z m1031 -12 c9 -6 -7 -11 -50 -15 -118 -11 -214
-11 -216 -1 -2 6 23 11 58 11 33 1 63 5 66 8 10 9 126 7 142 -3z m41 -1 c0 -5
-2 -10 -4 -10 -3 0 -8 5 -11 10 -3 6 -1 10 4 10 6 0 11 -4 11 -10z m-697 -7
c-7 -2 -13 -12 -13 -21 0 -13 -3 -13 -12 -4 -10 10 -10 15 2 22 8 5 20 9 25 9
6 0 4 -3 -2 -6z m-83 -13 c0 -12 -223 -12 -260 0 -15 5 31 8 118 9 88 1 142
-3 142 -9z m1128 -16 c23 -3 42 -10 42 -16 0 -6 -32 -8 -92 -4 -242 16 -305
26 -223 36 36 5 161 -3 273 -16z m912 17 c0 -5 -60 -11 -132 -15 -73 -4 -167
-8 -208 -11 -51 -3 -65 -1 -45 4 17 5 64 10 105 11 41 1 102 6 135 10 88 11
145 11 145 1z m-4425 -22 c4 -6 5 -12 3 -14 -2 -2 -83 -10 -181 -17 -136 -9
-180 -9 -189 0 -6 6 -9 14 -6 18 16 16 364 28 373 13z m-570 -19 c-4 -6 21 -8
72 -4 118 10 86 -7 -44 -22 -36 -5 -57 -3 -68 6 -11 9 -37 11 -95 7 -46 -4
-80 -2 -80 3 0 10 48 16 153 18 43 1 66 -2 62 -8z m1271 -37 c0 -61 8 -123 14
-123 3 0 3 -30 2 -67 -6 -101 7 -213 23 -213 8 0 17 5 20 10 6 10 -6 210 -21
363 -6 53 -5 57 15 57 13 0 21 -6 21 -17 0 -16 -2 -16 -11 -3 -8 12 -9 11 -6
-5 2 -11 9 -19 15 -17 7 1 12 -4 13 -10 0 -7 2 -42 4 -78 2 -36 7 -117 10
-180 l7 -116 35 4 35 4 -7 112 c-4 73 -3 106 4 96 5 -9 11 -58 13 -109 3 -93
3 -95 30 -102 34 -9 38 -4 38 43 0 35 2 38 15 24 17 -16 20 -56 5 -56 -5 0
-10 -5 -10 -10 0 -7 14 -8 38 -4 46 8 46 8 33 32 -7 13 -7 22 1 30 6 6 8 29 4
59 -10 71 -12 203 -3 204 4 1 12 2 18 3 8 1 10 -49 10 -161 l-2 -163 78 1 c43
1 68 4 57 6 -19 3 -21 10 -18 41 10 102 10 132 0 132 -6 0 -4 4 4 10 12 8 12
10 -3 16 -14 5 -17 19 -17 75 0 39 4 69 10 69 6 0 10 -11 10 -25 0 -49 18 -24
25 35 8 67 24 81 27 23 l1 -38 4 38 c3 24 9 37 19 37 11 0 14 -20 16 -97 l2
-98 3 98 c2 53 8 97 13 97 6 0 10 -9 10 -20 0 -13 7 -20 20 -20 11 0 20 -7 20
-15 0 -9 7 -18 15 -21 8 -4 15 -12 15 -20 0 -8 7 -14 15 -14 8 0 15 -7 15 -15
0 -8 -9 -15 -20 -15 -11 0 -20 -4 -20 -10 0 -5 7 -7 15 -4 12 5 15 -5 15 -57
0 -73 -8 -111 -21 -103 -5 3 -9 -9 -9 -25 0 -21 5 -31 15 -31 20 0 19 -17 -2
-29 -29 -16 -6 -25 59 -23 33 1 62 3 64 4 1 2 4 96 6 211 l3 207 -32 0 c-18 0
-33 4 -33 10 0 6 29 7 78 3 79 -6 108 -13 56 -13 l-30 0 -12 -182 c-6 -101
-13 -196 -14 -213 -2 -20 2 -30 12 -33 13 -2 19 24 33 150 10 84 21 174 24
201 3 26 10 47 16 47 6 0 7 -19 4 -47 -3 -27 -12 -111 -21 -188 -9 -76 -14
-145 -11 -153 3 -7 15 -12 27 -10 20 3 22 8 19 61 -2 52 -1 57 19 57 20 0 21
-5 19 -57 l-3 -58 52 -3 52 -3 0 115 c0 113 0 114 -22 108 -13 -3 -26 -10 -30
-16 -4 -6 -6 29 -5 78 1 49 3 81 5 72 2 -9 13 -16 27 -16 15 0 23 -5 21 -12
-1 -7 -1 -10 1 -5 3 4 16 7 30 7 l26 0 -7 -122 c-5 -68 -8 -133 -7 -146 0 -13
-3 -21 -8 -17 -5 3 -12 1 -16 -5 -3 -5 1 -10 9 -10 9 0 16 -7 16 -15 0 -8 7
-15 15 -15 13 0 15 26 15 175 0 168 1 175 20 175 16 0 20 7 20 35 0 19 5 35
10 35 6 0 10 -77 10 -210 0 -203 1 -210 20 -210 23 0 22 -11 20 253 -1 96 3
147 10 147 5 0 10 7 10 15 0 8 7 15 16 15 15 0 16 -21 12 -215 l-5 -215 35 0
c34 0 34 0 27 38 -4 20 -9 97 -12 169 -4 129 -3 134 19 156 44 44 50 19 42
-183 -7 -179 -7 -180 15 -180 21 0 21 4 22 163 1 89 1 177 0 195 -2 25 2 34
21 41 19 8 15 10 -24 10 -37 1 -48 5 -48 17 0 12 13 15 70 13 39 -1 74 -7 77
-13 4 -6 6 -29 4 -51 -2 -22 -6 -115 -10 -206 l-6 -167 68 -7 c38 -3 72 -4 75
0 12 11 16 67 16 207 1 76 4 130 7 120 6 -16 7 -16 15 2 7 19 8 19 15 0 6 -14
8 -9 10 21 2 36 3 35 8 -15 3 -30 3 -104 0 -165 -5 -94 -6 -99 -7 -37 -1 46
-6 71 -12 67 -6 -4 -9 -49 -9 -108 1 -56 4 -88 7 -72 5 30 5 30 11 5 5 -17 15
-26 33 -28 l27 -3 0 148 c-1 220 -3 203 26 203 l25 0 0 -175 0 -175 29 0 c25
0 28 3 23 28 -3 15 -10 30 -16 34 -7 4 -13 36 -14 73 -3 63 -2 66 18 60 11 -4
20 -2 20 4 0 6 -9 11 -19 11 -16 0 -19 7 -19 47 0 26 6 63 14 82 8 19 12 36
10 39 -8 7 21 32 38 32 13 0 16 -15 16 -93 0 -141 -12 -307 -21 -301 -5 3 -9
0 -9 -5 0 -6 16 -11 36 -11 23 0 33 4 28 11 -3 6 -8 48 -9 93 -2 44 -6 114
-10 154 -7 63 -6 72 9 72 9 0 16 5 16 10 0 6 -6 10 -14 10 -10 0 -13 8 -11 22
6 27 22 38 57 38 l27 0 -6 -203 c-6 -203 -6 -204 16 -210 12 -3 21 -13 21 -24
0 -16 -7 -18 -62 -15 -35 2 -69 9 -77 15 -12 9 -13 9 -7 0 9 -16 -49 -16 -819
-2 -319 5 -719 11 -889 12 -236 2 -310 5 -314 15 -2 6 -10 12 -17 12 -10 0
-14 39 -20 163 -7 170 -5 217 6 217 7 0 13 -63 25 -272 l6 -108 61 0 c34 0 57
4 51 8 -6 4 -16 83 -23 192 -7 102 -14 194 -16 206 -3 15 2 24 18 32 12 6 22
11 22 11 0 1 0 -20 1 -46z m1994 38 c0 -9 -208 -21 -223 -14 -4 3 -5 8 -2 13
7 12 225 12 225 1z m50 -1 c0 -5 -9 -10 -20 -10 -11 0 -20 5 -20 10 0 6 9 10
20 10 11 0 20 -4 20 -10z m443 3 c-7 -2 -21 -2 -30 0 -10 3 -4 5 12 5 17 0 24
-2 18 -5z m476 -9 c2 -2 -16 -4 -40 -4 -31 0 -40 3 -29 10 13 8 57 4 69 -6z
m-636 -1 c-7 -2 -19 -2 -25 0 -7 3 -2 5 12 5 14 0 19 -2 13 -5z m2060 1 c22
-4 37 -12 37 -20 0 -11 -26 -14 -129 -14 -168 0 -251 9 -251 26 0 11 31 14
153 14 83 0 169 -3 190 -6z m-6412 -26 c11 -11 17 -24 14 -27 -4 -3 -10 0 -14
7 -9 14 -92 14 -102 0 -3 -5 -4 -103 -1 -219 4 -207 4 -209 -17 -209 -20 0
-21 5 -22 133 0 72 -3 158 -5 190 -7 70 0 104 24 111 9 3 -4 3 -30 1 -26 -3
-50 0 -53 5 -4 6 24 10 72 11 53 0 72 3 58 9 -16 7 -12 9 19 9 28 1 44 -5 57
-21z m1322 15 c-7 -2 -19 -2 -25 0 -7 3 -2 5 12 5 14 0 19 -2 13 -5z m71 -2
c3 -4 17 -6 31 -4 13 3 33 2 42 -2 17 -6 17 -7 1 -16 -10 -6 -18 -22 -19 -37
0 -15 -3 -21 -6 -14 -2 6 -11 12 -19 12 -12 0 -13 -8 -8 -37 4 -21 10 -39 13
-41 3 -1 5 -22 3 -47 -3 -38 -1 -45 14 -45 14 0 15 -3 6 -12 -7 -7 -12 -23
-11 -38 l1 -25 8 25 c7 18 8 11 5 -25 -3 -37 -2 -44 4 -25 8 23 9 22 9 -10 0
-19 -3 -46 -7 -59 -4 -17 -18 43 -40 180 -18 112 -38 210 -43 217 -7 8 -7 12
0 12 6 0 13 -4 16 -9z m1672 2 c-7 -7 -108 -5 -115 3 -2 2 24 4 59 4 35 0 60
-3 56 -7z m704 -8 c0 -9 -9 -15 -25 -15 -29 0 -34 16 -7 23 30 8 32 7 32 -8z
m493 8 c-7 -2 -21 -2 -30 0 -10 3 -4 5 12 5 17 0 24 -2 18 -5z m562 -3 c33 -4
49 -8 35 -9 l-25 -1 0 -195 c0 -107 3 -195 8 -195 4 0 7 -7 7 -15 0 -8 -6 -15
-13 -15 -16 0 -27 136 -27 317 0 56 -3 103 -7 103 -5 0 -7 -86 -5 -192 2 -106
1 -190 -1 -188 -9 10 -17 120 -17 246 l0 131 -47 10 -48 10 40 1 c22 0 67 -4
100 -8z m411 -1 c3 -6 7 -31 9 -56 2 -25 9 -49 16 -54 11 -7 11 -9 1 -9 -7 0
-10 -5 -6 -11 3 -6 0 -15 -7 -20 -11 -7 -10 -9 4 -9 14 0 17 -10 19 -52 1 -44
3 -40 8 27 5 63 6 46 6 -75 0 -112 -1 -136 -6 -85 l-6 70 -4 -75 -3 -75 -6 77
c-9 105 -21 110 -21 10 l0 -82 -34 0 -33 0 -6 83 c-9 108 -9 332 0 340 10 11
61 8 69 -4z m74 -26 c0 -7 -4 -13 -10 -13 -5 0 -10 12 -10 28 0 21 2 24 10 12
5 -8 10 -21 10 -27z m-5220 12 c0 -8 -4 -15 -10 -15 -5 0 -10 4 -10 10 0 5 -7
7 -15 4 -8 -4 -15 -1 -15 5 0 6 11 11 25 11 16 0 25 -6 25 -15z m4560 -182
c-2 -109 -4 -206 -7 -215 -3 -13 -15 -18 -44 -18 l-39 0 0 215 0 215 46 0 46
0 -2 -197z m1008 190 c-10 -2 -28 -2 -40 0 -13 2 -5 4 17 4 22 1 32 -1 23 -4z
m1043 -7 c-7 -9 -8 -17 -3 -20 6 -3 13 1 16 9 5 13 23 15 103 13 86 -3 98 -5
98 -20 0 -10 -3 -18 -7 -18 -5 0 -98 0 -208 0 l-200 0 0 25 0 25 106 0 c91 0
105 -2 95 -14z m-5671 -6 c-14 -4 -34 -8 -45 -9 -16 -1 -17 1 -5 9 8 5 29 9
45 9 29 -1 29 -1 5 -9z m3224 -25 c4 -19 11 -35 16 -35 6 0 10 -5 10 -11 0
-14 25 -39 39 -39 14 0 6 -73 -9 -78 -13 -5 -13 -149 0 -157 6 -3 10 -19 10
-36 0 -24 -4 -29 -25 -29 -17 0 -25 6 -26 18 -1 16 -2 16 -6 -1 -3 -10 -12
-17 -21 -15 -13 2 -17 17 -19 68 -3 46 -1 61 7 50 7 -12 10 -8 10 17 0 17 -4
33 -9 35 -6 2 -10 55 -11 118 -1 142 -3 130 14 130 8 0 17 -15 20 -35z m766
25 l55 -7 -45 -1 c-25 0 -65 3 -90 7 -41 8 -42 9 -10 9 19 0 60 -3 90 -8z
m453 3 c-7 -2 -19 -2 -25 0 -7 3 -2 5 12 5 14 0 19 -2 13 -5z m1897 -3 c0 -5
-16 -10 -35 -10 -25 0 -35 -4 -35 -16 0 -10 5 -14 16 -10 8 3 12 2 9 -4 -3 -5
-39 -9 -80 -9 -67 0 -75 3 -75 20 0 10 -6 20 -12 21 -13 2 108 13 175 16 20 1
37 -2 37 -8z m-6557 -7 c-7 -2 -21 -2 -30 0 -10 3 -4 5 12 5 17 0 24 -2 18 -5z
m121 -3 c-5 -5 -43 -12 -84 -14 l-75 -5 59 9 c32 5 61 12 64 15 3 3 14 5 26 5
13 0 17 -3 10 -10z m3613 -297 c-1 -59 -3 -13 -3 102 0 116 2 164 3 108 2 -56
2 -151 0 -210z m-4564 290 c-7 -2 -19 -2 -25 0 -7 3 -2 5 12 5 14 0 19 -2 13
-5z m74 1 c-3 -3 -12 -4 -19 -1 -8 3 -5 6 6 6 11 1 17 -2 13 -5z m131 -6 c10
-10 15 -10 21 0 6 11 10 10 15 -5 7 -17 8 -17 17 0 11 19 39 23 56 6 8 -8 13
-8 17 0 11 17 73 14 79 -4 4 -8 3 -16 -1 -19 -4 -2 -62 -5 -129 -5 -118 -2
-121 -1 -116 18 6 24 23 27 41 9z m562 3 c0 -5 -15 -7 -32 -4 -46 7 -48 13 -5
13 21 0 37 -4 37 -9z m1524 -23 c13 -82 17 -226 7 -233 -8 -4 -12 32 -13 117
l-2 123 -6 -140 -6 -140 -2 153 c-1 91 2 152 8 152 5 0 11 -15 14 -32z m3318
-10 c3 -24 6 -112 7 -196 2 -122 -1 -153 -11 -150 -10 4 -14 50 -16 196 -1
112 1 192 7 192 5 0 11 -19 13 -42z m185 10 c-3 -7 -5 -2 -5 12 0 14 2 19 5
13 2 -7 2 -19 0 -25z m1296 25 c-18 -2 -48 -2 -65 0 -18 2 -4 4 32 4 36 0 50
-2 33 -4z m-7299 -82 c3 -24 6 -111 6 -192 0 -142 -1 -149 -20 -149 -18 0 -20
7 -20 63 0 35 -3 125 -7 200 -5 116 -9 137 -22 137 -13 0 -14 2 -2 9 25 16 58
-19 65 -68z m935 63 c2 -2 -21 -4 -52 -4 -30 0 -62 -3 -71 -6 -10 -4 -16 -1
-16 9 0 13 12 15 67 11 37 -3 69 -7 72 -10z m354 9 c-7 -2 -19 -2 -25 0 -7 3
-2 5 12 5 14 0 19 -2 13 -5z m881 -35 c8 -62 15 -246 10 -225 -3 9 -11 17 -17
17 -7 0 -6 4 3 10 11 7 12 12 4 18 -15 9 -30 222 -16 222 6 0 13 -19 16 -42z
m1646 38 c0 -3 -4 -8 -10 -11 -5 -3 -10 -1 -10 4 0 6 5 11 10 11 6 0 10 -2 10
-4z m1423 -63 c16 -172 20 -323 9 -323 -7 0 -14 10 -16 23 -8 42 -26 349 -20
358 13 22 22 4 27 -58z m-5183 -13 c0 -40 -4 -70 -10 -70 -6 0 -10 30 -10 70
0 40 4 70 10 70 6 0 10 -30 10 -70z m1424 38 c3 -18 13 -87 21 -153 8 -66 18
-137 21 -157 3 -21 2 -38 -3 -38 -5 0 -17 64 -26 143 -28 218 -28 221 -33 229
-3 5 -1 8 5 8 6 0 12 -15 15 -32z m1176 5 c-1 -16 -1 -30 0 -33 7 -19 6 -57
-2 -67 -7 -9 -6 -13 3 -13 11 0 11 -2 -1 -9 -21 -14 -30 -4 -21 22 4 12 6 46
4 75 -2 33 1 52 8 52 6 0 10 -12 9 -27z m1688 18 c10 -6 12 -45 6 -189 -4
-100 -10 -182 -13 -182 -23 1 -26 29 -23 198 2 100 6 182 10 182 4 0 13 -4 20
-9z m806 -7 c7 -20 8 -139 1 -132 -9 9 -22 148 -14 148 4 0 10 -7 13 -16z
m1164 -10 c59 -5 82 -11 82 -20 0 -9 -11 -14 -27 -14 -46 1 -254 27 -260 33
-15 16 12 22 64 16 32 -5 95 -11 141 -15z m1295 19 c-7 -2 -19 -2 -25 0 -7 3
-2 5 12 5 14 0 19 -2 13 -5z m-8126 -40 c-3 -10 -5 -4 -5 12 0 17 2 24 5 18 2
-7 2 -21 0 -30z m1618 27 c-3 -5 -13 -10 -21 -10 -8 0 -14 5 -14 10 0 6 9 10
21 10 11 0 17 -4 14 -10z m57 -15 c-2 -13 -1 -33 3 -42 4 -10 9 -65 11 -123 2
-58 6 -124 8 -147 2 -24 1 -43 -4 -43 -9 0 -17 79 -26 253 -5 83 -3 127 3 127
6 0 8 -11 5 -25z m78 3 c0 -13 3 -33 6 -45 4 -13 2 -23 -4 -23 -5 0 -12 20
-14 45 -2 25 0 45 4 45 5 0 8 -10 8 -22z m2007 -10 c-3 -7 -5 -2 -5 12 0 14 2
19 5 13 2 -7 2 -19 0 -25z m771 -9 c-3 -20 -5 -19 -9 9 -3 20 -2 29 4 23 5 -5
7 -19 5 -32z m403 4 c2 -21 1 -54 -2 -73 -5 -28 -7 -22 -8 28 0 34 -5 62 -11
62 -5 0 -10 5 -10 10 0 6 6 10 14 10 9 0 15 -14 17 -37z m1368 -85 c-1 -96 -3
-113 -10 -78 -11 66 -11 200 1 200 6 0 10 -47 9 -122z m-4495 60 c5 -37 25
-270 26 -305 0 -7 -5 -13 -11 -13 -6 0 -8 9 -4 21 4 13 3 19 -3 16 -12 -8 -24
102 -16 157 4 30 3 37 -5 26 -8 -12 -11 -6 -11 25 0 22 -3 57 -6 78 -5 29 -3
37 9 37 10 0 17 -14 21 -42z m3364 -133 c-1 -139 -4 -175 -15 -175 -10 0 -13
33 -13 159 0 88 3 166 6 175 17 45 24 -1 22 -159z m619 138 c-3 -10 -5 -4 -5
12 0 17 2 24 5 18 2 -7 2 -21 0 -30z m1783 -125 c0 -156 -5 -208 -19 -208 -7
0 -6 102 4 218 4 55 3 82 -4 82 -6 0 -11 9 -11 21 0 11 5 17 10 14 6 -3 10 0
10 9 0 8 -6 17 -12 19 -8 3 -6 6 5 6 15 1 17 -13 17 -161z m-6513 130 c-3 -8
-6 -5 -6 6 -1 11 2 17 5 13 3 -3 4 -12 1 -19z m1420 -45 c1 -45 -1 -62 -7 -53
-12 18 -13 120 -2 120 4 0 8 -30 9 -67z m115 -28 c3 -49 7 -121 9 -160 2 -69
2 -70 -24 -73 -27 -3 -27 -2 -27 55 0 33 5 64 12 71 9 9 9 12 0 12 -12 0 -17
26 -27 128 l-6 63 28 -3 c28 -3 28 -4 35 -93z m1818 69 c0 -8 -9 -14 -20 -14
-23 0 -25 6 -7 24 14 16 27 11 27 -10z m1100 -34 c0 -35 -4 -60 -11 -60 -9 0
-11 93 -1 113 8 18 12 3 12 -53z m2190 -7 l-5 -68 -3 54 c-3 47 1 81 10 81 2
0 1 -30 -2 -67z m-7507 15 c-8 -59 -13 -61 -13 -5 0 26 4 47 9 47 5 0 7 -19 4
-42z m2714 5 c-3 -10 -5 -4 -5 12 0 17 2 24 5 18 2 -7 2 -21 0 -30z m30 0 c-3
-10 -5 -4 -5 12 0 17 2 24 5 18 2 -7 2 -21 0 -30z m783 12 c0 -16 -6 -25 -15
-25 -9 0 -15 9 -15 25 0 16 6 25 15 25 9 0 15 -9 15 -25z m2690 -130 c0 -126
-3 -155 -14 -155 -11 0 -15 30 -18 148 -3 81 -3 150 -1 155 2 4 11 7 19 7 12
0 14 -27 14 -155z m253 25 c4 -69 3 -116 -2 -105 -8 20 -16 244 -8 235 2 -3 7
-61 10 -130z m30 111 c-3 -11 0 -73 6 -138 10 -116 7 -168 -10 -157 -12 7 -12
314 0 314 5 0 7 -9 4 -19z m490 13 c-7 -3 -9 -12 -6 -20 3 -8 1 -14 -4 -14 -5
0 -9 9 -10 20 -1 13 4 20 15 19 10 0 12 -3 5 -5z m-6945 -141 c-2 -140 -5
-123 -10 45 -2 50 0 92 5 92 4 0 6 -62 5 -137z m917 82 c2 -26 -1 -59 -5 -73
-6 -19 -9 -4 -9 52 -1 84 9 99 14 21z m1175 46 c0 -6 -4 -13 -10 -16 -5 -3
-10 1 -10 9 0 9 5 16 10 16 6 0 10 -4 10 -9z m3097 -43 c-2 -13 -4 -5 -4 17
-1 22 1 32 4 23 2 -10 2 -28 0 -40z m2653 31 c0 -11 -4 -18 -10 -14 -5 3 -7
12 -3 20 7 21 13 19 13 -6z m117 -11 c-3 -7 -5 -2 -5 12 0 14 2 19 5 13 2 -7
2 -19 0 -25z m-8280 0 c-3 -8 -6 -5 -6 6 -1 11 2 17 5 13 3 -3 4 -12 1 -19z
m1523 1 c0 -6 -4 -7 -10 -4 -5 3 -10 11 -10 16 0 6 5 7 10 4 6 -3 10 -11 10
-16z m5077 -31 c-2 -13 -4 -5 -4 17 -1 22 1 32 4 23 2 -10 2 -28 0 -40z
m-5456 -116 c1 -84 -1 -155 -5 -159 -14 -14 -19 10 -17 74 2 60 10 231 11 242
0 2 2 2 4 0 3 -2 6 -73 7 -157z m35 75 c-3 -29 -6 -95 -7 -147 -1 -81 -3 -88
-10 -50 -9 55 -11 226 -2 259 11 42 26 -5 19 -62z m5921 16 c-2 -16 -4 -5 -4
22 0 28 2 40 4 28 2 -13 2 -35 0 -50z m1024 0 c7 -115 -2 -254 -15 -250 -7 2
-10 23 -9 53 3 61 -4 95 -20 93 -51 -6 -57 -1 -57 55 l0 55 38 3 c32 3 37 7
40 31 6 51 20 27 23 -40z m-5649 27 c-2 -16 -6 -30 -8 -30 -2 0 -4 14 -4 30 0
17 4 30 8 30 5 0 7 -13 4 -30z m2018 -2 c0 -5 -4 -8 -10 -8 -5 0 -10 10 -10
23 0 18 2 19 10 7 5 -8 10 -18 10 -22z m-3453 0 c-3 -8 -6 -5 -6 6 -1 11 2 17
5 13 3 -3 4 -12 1 -19z m5290 -10 c-3 -7 -5 -2 -5 12 0 14 2 19 5 13 2 -7 2
-19 0 -25z m845 -120 c-2 -79 -6 -145 -8 -147 -2 -3 -9 0 -15 6 -16 16 -2 283
15 283 8 0 10 -38 8 -142z m1105 120 c-3 -8 -6 -5 -6 6 -1 11 2 17 5 13 3 -3
4 -12 1 -19z m-7010 -155 c-2 -32 -3 -6 -3 57 0 63 1 89 3 58 2 -32 2 -84 0
-115z m2532 117 c-1 -27 -6 -50 -11 -50 -5 0 -7 19 -4 43 2 23 5 45 5 50 1 4
3 7 6 7 2 0 4 -22 4 -50z m2455 41 c7 -11 -14 -20 -31 -13 -7 2 -10 8 -7 13 7
12 31 12 38 0z m-6377 -83 c-2 -18 -4 -6 -4 27 0 33 2 48 4 33 2 -15 2 -42 0
-60z m2503 53 c-10 -19 -7 -25 13 -22 4 0 7 -3 7 -9 0 -5 -10 -10 -22 -10 -12
0 -19 3 -15 6 3 3 2 17 -3 29 -7 19 -5 25 8 28 24 5 25 2 12 -22z m-1936 -103
c4 -65 4 -118 -1 -118 -4 0 -9 30 -11 68 -2 37 -5 87 -7 112 -3 40 2 67 10 58
1 -2 6 -56 9 -120z m334 -13 c2 -121 0 -134 -14 -128 -14 5 -16 17 -10 72 3
36 6 94 6 129 0 34 3 62 8 62 4 0 8 -61 10 -135z m2222 63 c0 -76 -5 -72 -14
10 -4 41 -2 61 4 57 6 -3 10 -34 10 -67z m2507 35 c-3 -10 -5 -4 -5 12 0 17 2
24 5 18 2 -7 2 -21 0 -30z m1101 -20 c-4 -62 -28 -71 -28 -10 0 24 3 47 7 50
16 17 24 3 21 -40z m1539 0 c-3 -10 -5 -2 -5 17 0 19 2 27 5 18 2 -10 2 -26 0
-35z m-3750 0 c-3 -10 -5 -4 -5 12 0 17 2 24 5 18 2 -7 2 -21 0 -30z m1860 15
c-3 -8 -6 -5 -6 6 -1 11 2 17 5 13 3 -3 4 -12 1 -19z m-4403 -84 c4 -53 10
-102 13 -110 3 -8 0 -14 -5 -14 -6 0 -13 24 -16 53 -12 122 -14 167 -7 167 5
0 11 -43 15 -96z m2636 92 c0 -2 -7 -9 -15 -16 -13 -11 -14 -10 -9 4 5 14 24
23 24 12z m1097 -28 c-3 -7 -5 -2 -5 12 0 14 2 19 5 13 2 -7 2 -19 0 -25z
m1672 -20 c-1 -75 -11 -102 -37 -106 -28 -4 -28 11 -1 37 12 11 16 21 10 25
-5 4 -8 13 -4 21 3 8 0 15 -6 15 -6 0 -11 9 -11 20 0 11 7 20 16 20 8 0 12 5
9 10 -3 6 1 10 9 10 13 0 16 -11 15 -52z m-4777 17 c-2 -14 -6 -25 -8 -25 -2
0 -4 11 -4 25 0 14 4 25 9 25 4 0 6 -11 3 -25z m2525 3 c-3 -8 -6 -5 -6 6 -1
11 2 17 5 13 3 -3 4 -12 1 -19z m2090 0 c-3 -8 -6 -5 -6 6 -1 11 2 17 5 13 3
-3 4 -12 1 -19z m680 -10 c-3 -7 -5 -2 -5 12 0 14 2 19 5 13 2 -7 2 -19 0 -25z
m-5210 0 c-3 -8 -6 -5 -6 6 -1 11 2 17 5 13 3 -3 4 -12 1 -19z m-2287 -10 c0
-19 -2 -20 -10 -8 -13 19 -13 30 0 30 6 0 10 -10 10 -22z m4206 -13 c-1 -9 -6
-15 -12 -15 -9 0 -13 19 -6 33 6 12 20 -2 18 -18z m1022 0 c-1 -14 -6 -25 -10
-25 -4 0 -8 11 -8 25 0 14 4 25 10 25 5 0 9 -11 8 -25z m249 -27 c-2 -13 -4
-5 -4 17 -1 22 1 32 4 23 2 -10 2 -28 0 -40z m-4530 -80 c-2 -24 -4 -7 -4 37
0 44 2 63 4 43 2 -21 2 -57 0 -80z m3763 82 c0 -16 -4 -30 -10 -30 -5 0 -10
14 -10 30 0 17 5 30 10 30 6 0 10 -13 10 -30z m810 10 c0 -11 -4 -20 -10 -20
-5 0 -10 9 -10 20 0 11 5 20 10 20 6 0 10 -9 10 -20z m2197 -17 c-3 -10 -5 -4
-5 12 0 17 2 24 5 18 2 -7 2 -21 0 -30z m-5510 -25 c-2 -13 -4 -5 -4 17 -1 22
1 32 4 23 2 -10 2 -28 0 -40z m4630 15 c-3 -10 -5 -4 -5 12 0 17 2 24 5 18 2
-7 2 -21 0 -30z m-6838 -55 c0 -69 -2 -78 -11 -55 -9 26 -3 137 8 137 2 0 4
-37 3 -82z m5889 22 c2 -49 0 -60 -13 -60 -12 0 -15 13 -15 60 0 42 4 60 13
60 8 0 13 -20 15 -60z m1611 13 c-1 -41 -2 -44 -8 -18 -7 28 -4 65 5 65 2 0 3
-21 3 -47z m-5982 -10 c-3 -10 -5 -2 -5 17 0 19 2 27 5 18 2 -10 2 -26 0 -35z
m3210 15 c-3 -7 -5 -2 -5 12 0 14 2 19 5 13 2 -7 2 -19 0 -25z m1605 20 c7
-18 -2 -39 -13 -32 -12 7 -12 44 0 44 5 0 11 -6 13 -12z m-1102 -43 c0 -25 -4
-45 -10 -45 -5 0 -10 20 -10 45 0 25 5 45 10 45 6 0 10 -20 10 -45z m1476 29
c-3 -9 -6 -36 -6 -60 0 -40 -2 -44 -25 -44 -23 0 -25 3 -25 48 0 39 4 49 23
58 32 17 40 16 33 -2z m101 -76 c-2 -18 -4 -4 -4 32 0 36 2 50 4 33 2 -18 2
-48 0 -65z m-4510 50 c-3 -7 -5 -2 -5 12 0 14 2 19 5 13 2 -7 2 -19 0 -25z
m420 10 c-3 -8 -6 -5 -6 6 -1 11 2 17 5 13 3 -3 4 -12 1 -19z m-1960 -20 c-3
-7 -5 -2 -5 12 0 14 2 19 5 13 2 -7 2 -19 0 -25z m6960 10 c-3 -8 -6 -5 -6 6
-1 11 2 17 5 13 3 -3 4 -12 1 -19z m-2230 -20 c-3 -7 -5 -2 -5 12 0 14 2 19 5
13 2 -7 2 -19 0 -25z m-2680 -10 c-3 -7 -5 -2 -5 12 0 14 2 19 5 13 2 -7 2
-19 0 -25z m1919 0 c-1 -23 -6 -34 -18 -36 -14 -3 -18 3 -17 30 1 31 1 31 9 8
7 -22 8 -22 9 -4 1 17 9 34 16 34 1 0 2 -15 1 -32z m1741 -15 c-3 -10 -5 -2
-5 17 0 19 2 27 5 18 2 -10 2 -26 0 -35z m110 25 c-3 -8 -6 -5 -6 6 -1 11 2
17 5 13 3 -3 4 -12 1 -19z m1433 12 c0 -5 -4 -10 -10 -10 -5 0 -10 5 -10 10 0
6 5 10 10 10 6 0 10 -4 10 -10z m-6323 -6 c-3 -3 -12 -4 -19 -1 -8 3 -5 6 6 6
11 1 17 -2 13 -5z m1043 -9 c0 -8 -4 -15 -10 -15 -5 0 -10 7 -10 15 0 8 5 15
10 15 6 0 10 -7 10 -15z m2799 -12 c0 -25 -1 -25 -8 -8 -5 11 -7 23 -4 28 8
14 13 7 12 -20z m806 17 c-3 -5 -10 -10 -16 -10 -5 0 -9 5 -9 10 0 6 7 10 16
10 8 0 12 -4 9 -10z m-2125 -8 c0 -13 -12 -22 -22 -16 -10 6 -1 24 13 24 5 0
9 -4 9 -8z m-3453 -39 c-3 -10 -5 -4 -5 12 0 17 2 24 5 18 2 -7 2 -21 0 -30z
m1467 22 c-4 -8 -8 -15 -10 -15 -2 0 -4 7 -4 15 0 8 4 15 10 15 5 0 7 -7 4
-15z m286 5 c0 -5 -7 -10 -15 -10 -8 0 -15 5 -15 10 0 6 7 10 15 10 8 0 15 -4
15 -10z m3475 1 c8 -14 -13 -24 -33 -16 -14 5 -14 7 -2 15 19 12 27 12 35 1z
m-635 -10 c0 -6 -4 -13 -10 -16 -5 -3 -10 1 -10 9 0 9 5 16 10 16 6 0 10 -4
10 -9z m1617 -28 c-3 -2 -18 -3 -34 -1 l-28 3 30 15 c25 13 31 13 33 2 2 -7 2
-16 -1 -19z m-5440 5 c-3 -8 -6 -5 -6 6 -1 11 2 17 5 13 3 -3 4 -12 1 -19z
m-1490 -20 c-3 -8 -6 -5 -6 6 -1 11 2 17 5 13 3 -3 4 -12 1 -19z m6380 -10
c-3 -8 -6 -5 -6 6 -1 11 2 17 5 13 3 -3 4 -12 1 -19z m-3699 -25 c-10 -2 -28
-2 -40 0 -13 2 -5 4 17 4 22 1 32 -1 23 -4z m140 0 c-16 -2 -40 -2 -55 0 -16
2 -3 4 27 4 30 0 43 -2 28 -4z m330 -20 c-10 -2 -26 -2 -35 0 -10 3 -2 5 17 5
19 0 27 -2 18 -5z m-781 -19 c-3 -3 -12 -4 -19 -1 -8 3 -5 6 6 6 11 1 17 -2
13 -5z m5176 -1 c-13 -2 -35 -2 -50 0 -16 2 -5 4 22 4 28 0 40 -2 28 -4z
m-4365 -20 c-10 -2 -28 -2 -40 0 -13 2 -5 4 17 4 22 1 32 -1 23 -4z m-110 -10
c-16 -2 -40 -2 -55 0 -16 2 -3 4 27 4 30 0 43 -2 28 -4z m-153 -10 c-16 -3
-33 -10 -37 -16 -5 -8 -8 -6 -8 6 0 13 8 17 38 16 34 -2 34 -2 7 -6z m61 -2
c-4 -5 0 -12 6 -14 7 -3 -5 -5 -27 -5 -22 0 -30 3 -17 5 12 2 20 9 17 14 -4 5
1 9 10 9 9 0 14 -4 11 -9z m4679 -1 c-16 -4 -115 -7 -220 -7 -123 0 -167 3
-125 7 92 9 382 9 345 0z m-1305 -24 c0 -20 -16 -36 -36 -36 -15 0 -24 -6 -24
-15 0 -8 5 -15 10 -15 6 0 10 -47 10 -122 -1 -105 -3 -120 -13 -100 -7 12 -15
20 -18 18 -9 -9 -10 48 -4 162 l7 112 34 0 c19 0 34 -2 34 -4z m-1422 -133
c12 -65 30 -173 42 -241 11 -67 23 -129 26 -137 4 -8 1 -15 -5 -15 -6 0 -11 5
-11 11 0 17 -69 410 -80 454 -12 50 -12 58 -1 51 5 -3 18 -59 29 -123z m2505
120 c-13 -2 -33 -2 -45 0 -13 2 -3 4 22 4 25 0 35 -2 23 -4z m-4702 -15 c1 -7
0 -17 -1 -23 -2 -5 -5 -119 -7 -252 -4 -229 -3 -243 14 -243 17 0 18 13 15
212 -2 117 0 237 3 266 6 49 8 52 36 52 25 0 29 -4 29 -29 0 -35 15 -49 24
-24 17 44 26 -24 27 -207 0 -107 5 -204 10 -215 6 -13 8 53 5 186 -3 195 2
247 25 234 5 -4 9 -70 10 -148 1 -78 4 -182 9 -232 5 -71 7 -41 8 139 0 147 5
233 11 239 11 11 12 -22 15 -365 l1 -108 123 0 c109 0 122 2 123 18 1 16 2 16
6 0 3 -13 15 -18 44 -18 l40 0 -5 118 c-3 83 -2 101 4 62 4 -30 8 -83 9 -117
l1 -63 71 0 c43 0 68 4 64 10 -3 5 -1 18 4 29 8 14 8 20 0 23 -6 2 -17 61 -25
138 -16 165 -16 163 -4 155 6 -3 10 0 10 7 0 9 3 9 10 -2 5 -8 10 -42 10 -75
0 -33 5 -89 10 -125 5 -36 10 -86 11 -112 2 -27 6 -48 11 -48 4 0 6 12 3 28
-2 15 -9 87 -16 160 -11 130 -8 177 6 110 4 -18 11 -37 15 -43 4 -5 13 -64 20
-130 6 -66 14 -122 16 -124 11 -12 12 13 3 113 -5 60 -8 111 -6 113 2 2 11
-47 19 -108 9 -61 18 -112 20 -114 6 -7 126 -8 576 -6 232 1 427 -1 432 -4 6
-3 10 -15 10 -25 0 -18 -15 -19 -412 -22 -754 -4 -2003 4 -2012 13 -6 5 -15 9
-20 9 -6 0 -4 -5 4 -10 10 -6 -47 -10 -169 -10 -101 0 -182 2 -180 4 2 3 66 6
141 7 92 2 135 6 132 14 -3 7 -106 12 -317 14 -171 2 -330 5 -352 7 -22 1
-107 3 -189 3 -82 1 -146 4 -143 8 4 3 36 5 72 4 67 -2 70 0 66 41 -1 9 3 19
9 23 6 4 10 55 11 128 1 113 14 275 18 215 0 -17 8 -28 19 -30 16 -3 17 -19
15 -193 -2 -122 1 -183 6 -170 5 11 10 98 10 193 l1 172 29 0 29 0 -5 -190
c-5 -166 -4 -190 10 -190 22 0 27 22 27 126 0 52 3 94 8 94 4 0 7 -51 6 -112
-1 -89 0 -99 5 -48 5 48 8 58 13 40 4 -14 5 38 3 115 -1 79 0 125 5 105 7 -33
7 -31 9 18 0 33 -3 51 -9 47 -6 -3 -7 1 -3 10 5 14 8 14 15 3 7 -10 11 -10 15
0 2 6 10 12 16 12 9 0 11 -47 7 -182 -5 -166 -7 -183 -22 -182 -10 1 -18 -4
-18 -12 0 -8 6 -14 14 -14 8 0 16 -5 18 -12 6 -17 169 -23 166 -6 -2 7 3 12
10 11 6 -2 12 2 12 7 0 6 -4 10 -10 10 -6 0 -10 55 -10 145 0 138 1 145 20
145 13 0 22 9 26 28 10 45 13 52 24 52 8 0 11 -60 8 -205 l-3 -205 33 0 32 0
0 201 c0 156 3 200 13 197 6 -3 13 -15 13 -27 2 -35 14 -37 14 -2 0 19 4 30
10 26 7 -4 8 -73 4 -201 l-7 -194 61 0 62 0 2 73 2 72 3 -72 4 -73 44 0 c38 0
45 3 53 28 l10 27 1 -27 c1 -27 3 -28 50 -28 43 0 51 3 57 23 l7 22 10 -22 c9
-21 17 -23 84 -23 58 0 73 3 73 15 0 8 5 15 11 15 6 0 9 -7 5 -15 -4 -13 9
-15 84 -15 79 0 90 2 91 18 1 16 2 16 6 0 4 -15 16 -18 79 -18 l74 0 0 246 c0
234 5 284 30 284 6 0 11 -6 11 -12z m743 -10 c9 -36 7 -128 -3 -128 -14 0 -22
31 -25 95 -2 38 1 55 10 55 6 0 14 -10 18 -22z m-1481 5 c-24 -2 -62 -2 -85 0
-24 2 -5 4 42 4 47 0 66 -2 43 -4z m4222 -400 c-5 -66 -11 -101 -17 -97 -7 4
-8 60 -4 158 3 83 6 191 6 239 0 49 3 94 8 100 10 16 15 -274 7 -400z m500
340 c-10 -53 -19 -31 -10 24 5 26 10 40 13 30 2 -11 1 -35 -3 -54z m-4527
-148 c-2 -117 -7 -190 -13 -192 -11 -3 -20 371 -9 389 18 29 24 -27 22 -197z
m148 195 c11 0 14 -16 13 -67 0 -50 -3 -62 -9 -46 -6 14 -17 21 -30 20 -17 -1
-21 -7 -18 -32 1 -16 6 -33 11 -36 4 -3 1 -12 -8 -19 -13 -11 -15 -5 -15 50
l0 62 30 -4 c20 -3 30 0 30 9 0 8 -12 13 -30 13 -25 0 -30 4 -30 23 0 29 9 39
28 32 7 -3 20 -5 28 -5z m4270 -107 c-3 -65 -9 -178 -12 -250 -4 -82 -10 -133
-17 -133 -7 0 -8 58 -4 182 4 99 7 212 7 250 0 56 3 68 16 68 14 0 16 -14 10
-117z m235 46 c-4 -81 -25 -100 -29 -27 -4 63 5 101 21 95 8 -3 11 -24 8 -68z
m-2261 52 c0 -5 9 -7 20 -4 18 5 20 0 20 -48 0 -30 3 -72 6 -94 5 -39 5 -40
-10 -15 l-15 25 -1 -37 c0 -20 -5 -38 -11 -40 -8 -3 -9 -23 -4 -67 5 -42 10
-59 16 -50 6 9 9 -5 9 -38 0 -29 -4 -53 -10 -53 -18 0 -11 -30 8 -30 15 -1 15
-2 -2 -15 -11 -8 -21 -13 -23 -11 -4 4 -33 386 -33 444 0 31 4 42 15 42 8 0
15 -4 15 -9z m-2133 -363 c-1 -68 -3 -13 -3 122 0 135 2 190 3 123 2 -68 2
-178 0 -245z m3381 119 c2 -206 0 -237 -13 -237 -13 0 -15 22 -16 143 0 78 -2
186 -5 240 -5 92 -4 99 13 95 17 -3 18 -20 21 -241z m-3688 211 c0 -13 -8 -18
-30 -18 -22 0 -30 5 -30 18 0 14 8 19 30 19 22 0 30 -5 30 -19z m397 -85 c-2
-21 -4 -4 -4 37 0 41 2 58 4 38 2 -21 2 -55 0 -75z m3397 99 c2 -4 0 -14 -5
-22 -8 -13 -10 -13 -19 0 -5 8 -10 18 -10 23 0 10 28 9 34 -1z m-3901 -22 c-4
-15 -14 -20 -38 -20 l-33 0 -10 -122 -10 -123 2 123 1 122 -137 0 c-114 0
-138 3 -138 14 0 18 38 22 232 24 132 2 136 1 131 -18z m1401 4 c12 -31 7 -56
-10 -50 -9 3 -18 6 -20 6 -2 0 -4 14 -4 30 0 32 23 42 34 14z m154 -131 c18
-82 34 -168 37 -193 9 -76 -11 -17 -41 122 -31 144 -44 166 -19 33 9 -48 15
-89 12 -91 -9 -9 -38 174 -32 202 5 22 4 25 -4 14 -9 -13 -11 -13 -11 2 0 9
-3 24 -7 34 -4 12 -3 15 5 10 7 -4 12 -2 12 3 0 6 4 11 9 11 4 0 22 -66 39
-147z m949 85 c-2 -13 -4 -3 -4 22 0 25 2 35 4 23 2 -13 2 -33 0 -45z m208
-35 c4 -54 13 -154 20 -223 11 -112 7 -156 -11 -137 -7 6 -29 195 -42 356 -7
91 -6 101 9 101 14 0 18 -15 24 -97z m-1468 20 c-2 -16 -4 -5 -4 22 0 28 2 40
4 28 2 -13 2 -35 0 -50z m110 30 c-3 -10 -5 -4 -5 12 0 17 2 24 5 18 2 -7 2
-21 0 -30z m4533 19 c0 -15 10 -18 67 -20 36 -1 69 -5 72 -8 3 -3 6 -69 7
-146 0 -108 -3 -141 -13 -145 -18 -7 -16 -30 3 -37 21 -8 14 -50 -9 -54 -10
-2 -29 -1 -42 2 -22 6 -24 12 -28 84 l-3 77 -2 -82 -2 -83 -60 0 -60 0 -2 63
-1 62 -6 -65 -6 -65 -57 -3 -57 -3 -3 215 -3 215 35 3 c19 2 65 4 103 5 59 2
67 0 67 -15z m-4011 -71 c6 -36 9 -67 6 -69 -6 -6 -35 98 -35 127 0 45 18 9
29 -58z m65 -1 c4 -48 3 -56 -3 -30 -18 71 -23 115 -12 105 5 -5 12 -39 15
-75z m86 11 c0 -58 -6 -50 -13 19 -4 37 -3 50 3 40 5 -8 10 -35 10 -59z m69 2
c0 -42 -2 -45 -10 -24 -5 14 -7 31 -5 38 3 7 1 13 -4 13 -6 0 -10 5 -10 10 0
6 7 10 15 10 11 0 15 -12 14 -47z m890 -3 c14 -64 14 -60 -9 -60 -11 0 -20 -4
-20 -9 0 -5 9 -7 20 -4 25 7 27 -15 3 -24 -10 -4 -21 -11 -25 -16 -8 -12 -24
49 -31 116 -4 46 -4 47 23 47 26 0 29 -4 39 -50z m2098 44 c-3 -3 -12 -4 -19
-1 -8 3 -5 6 6 6 11 1 17 -2 13 -5z m-3509 -79 c0 -16 -2 -15 -8 5 -4 14 -8
36 -8 50 0 22 1 22 8 -5 4 -16 8 -39 8 -50z m2769 53 c-3 -8 -6 -5 -6 6 -1 11
2 17 5 13 3 -3 4 -12 1 -19z m530 -15 c-3 -10 -5 -4 -5 12 0 17 2 24 5 18 2
-7 2 -21 0 -30z m-5373 21 c14 -5 16 -31 16 -179 0 -95 -3 -180 -6 -189 -3 -9
-15 -16 -25 -16 -17 0 -19 8 -19 88 0 91 11 302 16 302 1 0 9 -3 18 -6z m5433
0 c-3 -3 -12 -4 -19 -1 -8 3 -5 6 6 6 11 1 17 -2 13 -5z m-5037 -33 c0 -17 -4
-33 -10 -36 -6 -4 -10 8 -10 29 0 20 5 36 10 36 6 0 10 -13 10 -29z m337 7
c-3 -8 -6 -5 -6 6 -1 11 2 17 5 13 3 -3 4 -12 1 -19z m4604 -1 c-10 -9 -11 -8
-5 6 3 10 9 15 12 12 3 -3 0 -11 -7 -18z m-4811 -67 c0 -45 -4 -80 -10 -80 -9
0 -12 136 -3 153 10 18 13 2 13 -73z m3857 43 c-3 -10 -5 -4 -5 12 0 17 2 24
5 18 2 -7 2 -21 0 -30z m1050 31 c-3 -3 -12 -4 -19 -1 -8 3 -5 6 6 6 11 1 17
-2 13 -5z m-300 -66 c-2 -13 -4 -3 -4 22 0 25 2 35 4 23 2 -13 2 -33 0 -45z
m-3264 -63 c3 -63 2 -97 -3 -80 -8 30 -13 202 -6 194 2 -2 6 -53 9 -114z m824
63 c-2 -13 -4 -5 -4 17 -1 22 1 32 4 23 2 -10 2 -28 0 -40z m677 37 c3 -8 1
-15 -4 -15 -6 0 -10 7 -10 15 0 8 2 15 4 15 2 0 6 -7 10 -15z m-3507 -27 c-3
-7 -5 -2 -5 12 0 14 2 19 5 13 2 -7 2 -19 0 -25z m2408 -60 c9 -51 19 -102 22
-112 5 -18 4 -17 -17 2 -12 11 -20 27 -17 35 3 8 -1 34 -9 58 -13 37 -12 109
0 109 2 0 11 -42 21 -92z m-1442 12 l-7 -55 -8 45 c-8 48 -2 88 13 73 5 -5 6
-33 2 -63z m924 18 c-2 -13 -4 -5 -4 17 -1 22 1 32 4 23 2 -10 2 -28 0 -40z
m583 -132 c0 -15 -3 -16 -15 -6 -8 7 -15 24 -15 39 -1 14 -7 48 -14 76 -9 36
-10 52 -2 61 8 9 15 -9 28 -70 9 -44 17 -89 18 -100z m3096 162 c-3 -13 -6
-29 -6 -35 0 -7 -7 -13 -15 -13 -8 0 -15 5 -15 11 0 5 4 8 9 5 5 -4 7 3 4 14
-3 13 0 20 8 20 11 0 11 2 -1 10 -13 8 -12 10 4 10 14 0 17 -5 12 -22z m-5789
-4 c-3 -3 -12 -4 -19 -1 -8 3 -5 6 6 6 11 1 17 -2 13 -5z m1360 -16 c-3 -8 -6
-5 -6 6 -1 11 2 17 5 13 3 -3 4 -12 1 -19z m1530 0 c-3 -8 -6 -5 -6 6 -1 11 2
17 5 13 3 -3 4 -12 1 -19z m70 0 c-3 -8 -6 -5 -6 6 -1 11 2 17 5 13 3 -3 4
-12 1 -19z m775 -3 c3 -14 1 -25 -3 -25 -5 0 -9 11 -9 25 0 14 2 25 4 25 2 0
6 -11 8 -25z m-3732 -5 c0 -5 -5 -10 -11 -10 -5 0 -7 5 -4 10 3 6 8 10 11 10
2 0 4 -4 4 -10z m1880 0 c0 -5 -2 -10 -4 -10 -3 0 -8 5 -11 10 -3 6 -1 10 4
10 6 0 11 -4 11 -10z m557 -12 c-3 -8 -6 -5 -6 6 -1 11 2 17 5 13 3 -3 4 -12
1 -19z m2760 -25 c-3 -10 -5 -2 -5 17 0 19 2 27 5 18 2 -10 2 -26 0 -35z m318
-65 c-7 -123 -13 -170 -22 -178 -7 -6 6 234 14 268 12 49 15 16 8 -90z m412
96 c-3 -3 -12 -4 -19 -1 -8 3 -5 6 6 6 11 1 17 -2 13 -5z m-5177 -45 c0 -16
-4 -29 -10 -29 -5 0 -10 16 -10 36 0 21 4 33 10 29 6 -3 10 -19 10 -36z m3397
19 c-3 -8 -6 -5 -6 6 -1 11 2 17 5 13 3 -3 4 -12 1 -19z m440 -10 c-3 -7 -5
-2 -5 12 0 14 2 19 5 13 2 -7 2 -19 0 -25z m-1140 -20 c-3 -7 -5 -2 -5 12 0
14 2 19 5 13 2 -7 2 -19 0 -25z m290 10 c-3 -8 -6 -5 -6 6 -1 11 2 17 5 13 3
-3 4 -12 1 -19z m-2380 -145 c-2 -32 -3 -8 -3 52 0 61 1 87 3 58 2 -29 2 -78
0 -110z m2160 151 c-3 -3 -12 -4 -19 -1 -8 3 -5 6 6 6 11 1 17 -2 13 -5z
m2257 -6 c-3 -4 -9 -8 -15 -8 -5 0 -9 4 -9 8 0 5 7 9 15 9 8 0 12 -4 9 -9z
m-1954 -8 c0 -5 -4 -10 -10 -10 -5 0 -10 5 -10 10 0 6 5 10 10 10 6 0 10 -4
10 -10z m1767 -5 c0 -8 -4 -15 -9 -15 -4 0 -8 7 -8 15 0 8 4 15 8 15 5 0 9 -7
9 -15z m-7197 -9 c0 -8 -5 -18 -10 -21 -6 -3 -10 3 -10 14 0 12 5 21 10 21 6
0 10 -6 10 -14z m4079 -74 c7 -35 10 -66 8 -68 -2 -3 -10 24 -16 58 -7 35 -14
72 -17 83 -4 15 -3 17 4 5 5 -8 15 -44 21 -78z m1701 23 c5 -5 10 -35 11 -65
3 -45 0 -55 -14 -58 -14 -3 -17 6 -18 55 0 32 -3 69 -5 83 -2 13 -1 31 3 40 5
11 8 6 11 -15 2 -16 7 -34 12 -40z m1027 33 c-3 -7 -5 -2 -5 12 0 14 2 19 5
13 2 -7 2 -19 0 -25z m-1569 -150 c7 -25 7 -40 1 -44 -17 -10 -21 2 -30 83
-12 114 -9 148 6 68 7 -38 17 -87 23 -107z m1503 128 c1 -17 3 -42 4 -56 1
-14 -2 -28 -9 -32 -7 -5 -8 -11 -1 -15 13 -11 14 -65 0 -58 -5 3 -17 7 -25 10
-12 5 -14 23 -12 99 3 87 5 93 23 89 13 -4 19 -15 20 -37z m-1294 28 c-3 -3
-12 -4 -19 -1 -8 3 -5 6 6 6 11 1 17 -2 13 -5z m2080 0 c-3 -3 -12 -4 -19 -1
-8 3 -5 6 6 6 11 1 17 -2 13 -5z m-1227 -52 c0 -13 -4 -20 -10 -17 -5 3 -10
21 -10 38 0 24 3 28 10 17 5 -8 10 -25 10 -38z m-2811 -34 c-1 -47 -4 -63 -8
-44 -6 30 -3 116 5 116 2 0 3 -33 3 -72z m1880 22 l-1 -25 -8 25 c-4 14 -8 32
-9 40 -1 13 0 13 9 0 5 -8 9 -26 9 -40z m86 40 c-27 -12 -35 -12 -35 0 0 6 12
10 28 9 24 0 25 -1 7 -9z m-2966 -62 l-1 -63 -10 49 c-8 46 -6 76 7 76 3 0 4
-28 4 -62z m1892 -30 c4 -16 4 -28 -1 -28 -8 0 -22 40 -35 105 -6 25 25 -41
36 -77z m-364 50 c-3 -8 -6 -5 -6 6 -1 11 2 17 5 13 3 -3 4 -12 1 -19z m576
-45 c4 -18 3 -33 -2 -33 -13 0 -21 27 -20 68 0 29 2 33 8 17 4 -11 11 -35 14
-52z m-59 -70 c3 -7 1 -15 -3 -17 -9 -6 -22 69 -20 118 1 18 5 6 10 -29 5 -33
11 -65 13 -72z m-93 100 c0 -10 4 -39 8 -65 4 -27 5 -48 1 -48 -4 0 -10 15
-13 33 -3 17 -9 47 -13 65 -4 21 -3 32 5 32 6 0 11 -8 12 -17z m-594 -85 c-2
-18 -4 -6 -4 27 0 33 2 48 4 33 2 -15 2 -42 0 -60z m825 47 c3 -14 2 -25 -2
-25 -4 0 -10 13 -12 29 -5 36 8 32 14 -4z m-1864 -6 c-3 -8 -7 -3 -11 10 -4
17 -3 21 5 13 5 -5 8 -16 6 -23z m-1208 1 c0 -5 -5 -10 -11 -10 -5 0 -7 5 -4
10 3 6 8 10 11 10 2 0 4 -4 4 -10z m3540 -15 c0 -18 -5 -25 -20 -25 -35 0 -24
45 13 49 4 1 7 -10 7 -24z m-2780 -21 c0 -21 -4 -34 -11 -32 -6 2 -10 7 -10
11 1 4 1 18 1 32 0 14 5 25 10 25 6 0 10 -16 10 -36z m4526 19 c-2 -9 -8 -18
-15 -19 -6 -1 -7 0 -2 2 6 3 7 12 4 20 -3 8 -1 14 5 14 6 0 9 -8 8 -17z
m-2619 -7 c-3 -7 0 -19 6 -25 6 -6 8 -13 5 -17 -9 -8 -30 35 -23 46 9 15 18
12 12 -4z m800 -8 c-3 -8 -6 -5 -6 6 -1 11 2 17 5 13 3 -3 4 -12 1 -19z m2313
2 c0 -15 -7 -20 -25 -20 -27 0 -28 1 -19 24 9 24 44 20 44 -4z m37 -12 c-3 -7
-5 -2 -5 12 0 14 2 19 5 13 2 -7 2 -19 0 -25z m99 17 c3 -8 3 -19 0 -24 -10
-16 -36 -1 -36 20 0 22 28 26 36 4z m-4792 -10 c3 -8 1 -15 -4 -15 -6 0 -10 7
-10 15 0 8 2 15 4 15 2 0 6 -7 10 -15z m4847 6 c6 10 9 8 9 -8 0 -16 -4 -21
-15 -17 -8 4 -15 14 -14 23 0 12 2 12 6 2 5 -11 7 -11 14 0z m-3504 -23 c-3
-8 -6 -5 -6 6 -1 11 2 17 5 13 3 -3 4 -12 1 -19z m323 -3 c0 -14 -4 -25 -9
-25 -4 0 -6 11 -3 25 2 14 6 25 8 25 2 0 4 -11 4 -25z m1957 3 c-3 -8 -6 -5
-6 6 -1 11 2 17 5 13 3 -3 4 -12 1 -19z m-6356 -31 c-8 -8 -11 -3 -11 19 1 25
2 27 11 11 8 -14 8 -22 0 -30z m3499 23 c0 -13 -7 -20 -20 -20 -19 0 -19 1 -2
19 22 25 22 25 22 1z m310 0 c0 -11 -4 -20 -9 -20 -5 0 -7 9 -4 20 3 11 7 20
9 20 2 0 4 -9 4 -20z m800 5 c0 -8 -2 -15 -4 -15 -2 0 -6 7 -10 15 -3 8 -1 15
4 15 6 0 10 -7 10 -15z m-3000 -5 c0 -5 -4 -10 -10 -10 -5 0 -10 5 -10 10 0 6
5 10 10 10 6 0 10 -4 10 -10z m5287 -16 c-3 -3 -12 -4 -19 -1 -8 3 -5 6 6 6
11 1 17 -2 13 -5z m1073 -193 c-41 -13 -153 -14 -145 -2 3 7 40 11 88 10 53 0
73 -3 57 -8z m-2407 -28 c-7 -2 -19 -2 -25 0 -7 3 -2 5 12 5 14 0 19 -2 13 -5z
m2750 -10 c-13 -2 -35 -2 -50 0 -16 2 -5 4 22 4 28 0 40 -2 28 -4z m-685 -10
c-15 -2 -42 -2 -60 0 -18 2 -6 4 27 4 33 0 48 -2 33 -4z m691 -27 c-8 -8 -206
-12 -225 -5 -10 4 37 8 105 8 68 1 122 -1 120 -3z m-1361 -13 c-10 -2 -26 -2
-35 0 -10 3 -2 5 17 5 19 0 27 -2 18 -5z m1095 0 c-7 -2 -19 -2 -25 0 -7 3 -2
5 12 5 14 0 19 -2 13 -5z m-1013 -33 c0 -6 -30 -9 -72 -8 l-73 1 60 7 c33 4
66 7 73 8 6 1 12 -2 12 -8z m-173 -36 c-3 -3 -12 -4 -19 -1 -8 3 -5 6 6 6 11
1 17 -2 13 -5z m136 -1 c-24 -2 -62 -2 -85 0 -24 2 -5 4 42 4 47 0 66 -2 43
-4z m-3820 -25 c15 -16 11 -23 -14 -20 -8 1 -3 -327 5 -335 11 -11 36 7 36 27
0 12 7 28 15 36 13 14 15 13 15 -9 0 -14 -6 -28 -12 -30 -10 -4 -9 -8 2 -16
12 -8 16 -6 18 9 2 11 7 20 12 20 4 0 6 -9 3 -20 -8 -30 35 -27 46 3 5 12 6
24 2 27 -3 3 -6 64 -6 135 1 72 -1 134 -3 138 -2 4 -10 3 -18 -4 -11 -9 -14
-8 -14 9 0 25 26 29 183 30 96 1 117 -1 117 -13 0 -18 -27 -20 -33 -2 -11 31
-17 -11 -23 -166 -5 -113 -4 -167 3 -167 7 0 13 59 18 154 6 123 10 152 19
143 10 -8 12 -51 10 -157 -2 -116 -1 -130 6 -70 4 41 8 122 9 178 l1 104 43
-6 c23 -3 43 -5 44 -5 1 -1 0 -8 -3 -16 -7 -18 -30 -20 -37 -2 -3 6 -5 -64 -4
-158 l1 -170 3 148 c3 121 6 147 18 147 13 0 15 -25 17 -147 1 -121 2 -136 8
-83 4 36 8 113 9 173 l1 107 38 1 c47 1 447 1 528 0 l61 -1 12 -57 c6 -32 18
-100 26 -152 8 -52 17 -96 19 -98 3 -3 2 63 -1 147 -5 117 -3 154 7 160 6 4
107 8 223 9 l210 2 -6 -170 -7 -171 36 0 c30 0 34 2 25 14 -9 11 -8 18 4 30 9
9 13 20 10 26 -3 5 -1 10 5 10 6 0 10 -8 9 -17 -5 -59 -3 -62 64 -65 43 -2 61
-7 59 -15 -1 -7 2 -13 8 -13 5 0 10 -12 10 -26 l0 -27 -1432 7 c-788 3 -1716
9 -2063 12 -346 3 -648 5 -670 5 -37 0 -39 1 -21 14 30 23 7 26 -181 23 -94
-2 -169 0 -167 4 3 4 -19 9 -48 11 -29 2 62 4 202 5 390 3 883 13 892 18 4 3
8 79 8 170 0 103 4 164 10 164 6 0 10 -30 10 -71 0 -111 21 -259 37 -259 8 0
13 12 13 33 l0 32 162 -4 c90 -1 164 -4 166 -6 1 -1 4 -16 5 -34 2 -29 4 -31
45 -31 l42 0 0 149 c0 83 3 152 8 154 16 11 61 -5 55 -19 -7 -20 7 -17 23 4
13 16 14 16 8 0 -7 -20 12 -25 19 -5 4 9 8 8 16 -3 9 -13 11 -12 11 4 0 20 22
20 288 0 l82 -6 0 -59 0 -59 -50 -25 c-53 -27 -70 -53 -70 -105 0 -22 -5 -29
-22 -32 -23 -4 124 -14 342 -23 84 -4 109 -3 91 5 -18 8 -22 15 -17 33 3 12
20 86 38 165 l32 143 37 -6 c20 -4 40 -2 43 3 3 6 32 10 65 10 l58 0 -21 -21
c-13 -14 -22 -17 -24 -10 -6 21 -31 23 -37 2 -4 -10 -11 -17 -16 -13 -5 3 -6
11 -3 17 4 7 1 7 -7 -1 -12 -11 -11 -15 3 -26 15 -11 18 -34 21 -157 l3 -144
2 148 c2 140 3 147 22 147 12 0 20 -7 20 -17 1 -10 2 -76 3 -148 l2 -130 33
-3 32 -3 0 93 c0 51 3 136 6 188 6 79 10 96 23 96 9 0 24 -9 34 -18z m-1553
-9 c0 11 3 11 15 1 8 -6 18 -9 23 -6 6 3 15 -1 22 -9 7 -8 18 -15 26 -15 23 0
36 -39 32 -96 l-3 -54 80 -2 c44 -1 93 -2 108 -1 48 2 24 -22 -26 -25 -33 -2
-47 -7 -47 -18 0 -11 -17 -14 -82 -14 -98 0 -95 13 5 21 63 5 57 6 -49 7 -119
2 -122 2 -122 25 0 12 -3 65 -6 117 -7 87 -6 93 8 76 10 -13 16 -15 16 -7z
m1620 -3 c0 -2 -7 -6 -15 -10 -8 -3 -15 -1 -15 4 0 6 7 10 15 10 8 0 15 -2 15
-4z m1610 -36 c0 -5 -4 -10 -10 -10 -5 0 -10 5 -10 10 0 6 5 10 10 10 6 0 10
-4 10 -10z m420 -20 c0 -5 -7 -7 -15 -4 -8 4 -15 8 -15 10 0 2 7 4 15 4 8 0
15 -4 15 -10z m-63 -6 c-3 -3 -12 -4 -19 -1 -8 3 -5 6 6 6 11 1 17 -2 13 -5z
m-340 -90 c-3 -3 -12 -4 -19 -1 -8 3 -5 6 6 6 11 1 17 -2 13 -5z m443 -61 c0
-5 -24 -7 -52 -5 -95 5 -104 9 -25 11 42 0 77 -2 77 -6z m-2103 -50 c-3 -10
-5 -2 -5 17 0 19 2 27 5 18 2 -10 2 -26 0 -35z m4766 20 c-13 -2 -35 -2 -50 0
-16 2 -5 4 22 4 28 0 40 -2 28 -4z m-2766 -9 c-3 -3 -12 -4 -19 -1 -8 3 -5 6
6 6 11 1 17 -2 13 -5z m-37 -28 c0 -3 -4 -8 -10 -11 -5 -3 -10 -1 -10 4 0 6 5
11 10 11 6 0 10 -2 10 -4z m127 -18 c-3 -8 -6 -5 -6 6 -1 11 2 17 5 13 3 -3 4
-12 1 -19z m-257 2 c0 -5 -5 -10 -11 -10 -5 0 -7 5 -4 10 3 6 8 10 11 10 2 0
4 -4 4 -10z m457 -12 c-3 -8 -6 -5 -6 6 -1 11 2 17 5 13 3 -3 4 -12 1 -19z
m333 -28 c41 -5 -85 -8 -345 -8 -397 -1 -475 2 -475 17 0 10 737 2 820 -9z
m-5690 6 c0 -9 -30 -14 -35 -6 -4 6 3 10 14 10 12 0 21 -2 21 -4z m2337 -92
c-3 -3 -12 -4 -19 -1 -8 3 -5 6 6 6 11 1 17 -2 13 -5z m103 -4 c0 -5 -10 -10
-22 -9 -22 0 -22 1 -3 9 11 5 21 9 23 9 1 1 2 -3 2 -9z m-60 -10 c0 -5 -10
-10 -22 -9 -22 0 -22 1 -3 9 11 5 21 9 23 9 1 1 2 -3 2 -9z m1428 3 c-10 -2
-26 -2 -35 0 -10 3 -2 5 17 5 19 0 27 -2 18 -5z m-1338 -53 c0 -18 -7 -20 -65
-20 -58 0 -65 2 -65 20 0 18 7 20 65 20 58 0 65 -2 65 -20z m525 8 c16 -7 25
-19 25 -35 0 -14 6 -23 15 -23 8 0 12 -6 9 -14 -7 -18 -49 -15 -49 4 0 11 -14
16 -52 18 -45 3 -53 6 -53 23 0 15 7 19 33 20 l32 2 -35 7 -35 7 42 2 c23 0
54 -4 68 -11z m-368 -30 c-3 -7 -5 -2 -5 12 0 14 2 19 5 13 2 -7 2 -19 0 -25z
m-257 -17 c0 -5 11 -11 25 -13 19 -4 23 -2 15 7 -7 9 -2 12 20 13 17 0 30 -4
29 -11 -1 -18 -17 -54 -18 -39 -1 14 -71 17 -71 2 0 -5 11 -10 24 -10 14 0 28
-4 31 -10 4 -6 -13 -10 -44 -10 -57 0 -63 6 -55 49 5 21 12 31 25 31 11 0 19
-4 19 -9z m379 -14 c12 -15 12 -17 -3 -11 -9 3 -16 13 -16 22 0 8 1 13 3 11 1
-2 9 -12 16 -22z m4145 -47 c3 -36 6 -96 6 -133 0 -43 4 -66 10 -62 6 4 10
-12 9 -42 -1 -43 -2 -45 -9 -18 -5 20 -8 -2 -9 -70 -1 -55 -4 -110 -7 -122 -7
-26 -39 -31 -48 -7 -3 8 -10 12 -16 9 -6 -4 -8 -11 -5 -16 4 -5 -7 -9 -24 -9
-24 0 -32 5 -36 23 -2 12 -6 129 -7 259 -3 230 -2 237 17 242 45 12 45 13 47
-146 l2 -153 3 145 c2 80 5 150 7 156 3 7 16 11 29 10 23 -1 25 -6 31 -66z
m-4044 35 c0 -8 -8 -15 -17 -15 -15 0 -15 2 -4 9 11 7 4 11 -25 14 l-39 4 43
1 c31 2 42 -2 42 -13z m0 -42 c0 -10 -5 -25 -11 -33 -8 -12 -9 -9 -5 12 4 16
1 28 -7 31 -7 3 -5 6 6 6 10 1 17 -6 17 -16z m190 -35 c0 -53 -14 -57 -23 -8
-3 16 -5 8 -6 -20 -2 -40 -3 -43 -12 -20 -15 38 -2 100 22 100 16 0 19 -7 19
-52z m3435 25 c-36 -198 -72 -438 -68 -449 4 -10 -3 -14 -21 -14 -29 0 -35 16
-8 23 13 4 11 5 -5 6 -31 1 -30 22 6 244 30 183 43 217 82 217 15 0 17 -6 14
-27z m658 0 c-7 -2 -19 -2 -25 0 -7 3 -2 5 12 5 14 0 19 -2 13 -5z m-1450 -10
c-7 -2 -21 -2 -30 0 -10 3 -4 5 12 5 17 0 24 -2 18 -5z m1765 -20 c-10 -2 -28
-2 -40 0 -13 2 -5 4 17 4 22 1 32 -1 23 -4z m-5424 -75 c4 -29 9 -108 13 -175
l6 -123 -40 0 -40 0 -7 61 c-13 129 -4 179 33 179 6 0 11 15 11 34 0 30 -3 35
-27 38 -17 2 -29 10 -31 21 -3 14 4 17 36 17 l39 0 7 -52z m6011 -10 c20 -69
20 -158 0 -158 -9 0 -16 10 -16 28 -2 27 -2 27 -6 1 -4 -23 -8 -25 -52 -26
l-49 0 -6 66 c-4 36 -9 83 -12 104 l-6 37 66 0 65 0 16 -52z m-7437 30 c19
-19 14 -26 -20 -31 -29 -3 -27 -4 10 -5 42 -2 42 -2 42 -40 0 -35 -2 -37 -31
-38 -16 -1 -33 -4 -36 -7 -3 -3 -5 -37 -4 -74 1 -62 -1 -66 -13 -43 -8 16 -10
31 -4 43 6 12 5 17 -7 17 -8 0 -14 3 -14 8 4 24 -3 40 -21 45 -16 4 -20 14
-20 52 l0 47 31 -7 c22 -5 30 -3 28 7 -4 29 2 38 24 38 13 0 28 -5 35 -12z
m5723 -118 c-6 -37 -8 -82 -5 -99 8 -38 -4 -121 -17 -121 -6 0 -8 16 -5 38 6
36 6 36 -4 7 -6 -16 -11 -44 -11 -60 -1 -30 -2 -31 -47 -29 -81 2 -82 3 -82
26 0 40 85 364 88 336 5 -41 27 -41 59 0 l28 37 3 -33 c2 -18 -1 -64 -7 -102z
m-5521 110 c9 -6 17 -5 22 3 6 9 12 7 22 -6 8 -10 18 -17 22 -16 5 1 19 1 32
0 19 -1 22 -7 22 -40 0 -43 -9 -55 -34 -45 -10 4 -16 18 -16 41 0 29 -3 34
-17 29 -9 -4 -20 -1 -25 6 -5 9 -8 6 -8 -9 0 -13 -5 -23 -11 -23 -6 0 -9 -9
-6 -20 3 -13 0 -20 -9 -20 -10 0 -14 12 -14 40 0 37 -2 40 -27 39 -24 -2 -25
-2 -5 -6 18 -4 22 -11 22 -40 0 -31 -3 -35 -21 -30 -20 5 -21 3 -14 -39 6 -41
-1 -54 -19 -36 -4 4 -11 8 -14 8 -50 10 -53 15 -50 78 3 56 5 61 27 64 13 2
31 10 38 18 16 16 61 18 83 4z m6169 -142 c7 -79 14 -151 16 -160 2 -10 -1
-18 -6 -18 -5 0 -9 3 -10 8 0 4 -2 14 -3 22 -2 8 -6 60 -10 115 -4 55 -9 117
-12 138 -2 20 0 37 4 37 5 0 15 -64 21 -142z m75 10 c10 -73 20 -146 23 -162
5 -22 3 -28 -8 -24 -8 3 -14 11 -15 19 -1 22 -14 107 -30 193 -17 97 -17 106
0 106 9 0 18 -36 30 -132z m43 110 c-3 -8 -6 -5 -6 6 -1 11 2 17 5 13 3 -3 4
-12 1 -19z m43 6 c0 -8 -5 -12 -10 -9 -6 4 -8 11 -5 16 9 14 15 11 15 -7z
m164 -56 c12 -152 11 -248 -1 -253 -30 -11 -43 7 -43 59 -1 28 -3 93 -6 144
-7 104 -3 122 25 122 17 0 20 -9 25 -72z m-4492 38 c4 -17 1 -23 -9 -19 -15 6
-15 6 -7 27 8 22 11 20 16 -8z m128 14 c0 -5 -2 -10 -4 -10 -3 0 -8 5 -11 10
-3 6 -1 10 4 10 6 0 11 -4 11 -10z m30 6 c0 -3 -4 -8 -10 -11 -5 -3 -10 -1
-10 4 0 6 5 11 10 11 6 0 10 -2 10 -4z m1930 -6 c0 -5 -4 -10 -10 -10 -5 0
-10 5 -10 10 0 6 5 10 10 10 6 0 10 -4 10 -10z m1216 -12 c-4 -13 -13 -54 -21
-93 -31 -154 -52 -216 -71 -208 -8 3 -14 0 -14 -6 0 -6 -7 -8 -15 -5 -12 5
-10 10 11 26 14 12 23 27 20 35 -3 8 -2 12 2 9 9 -5 35 70 58 164 16 67 17 73
4 65 -5 -3 -10 -15 -10 -25 0 -10 -5 -22 -11 -26 -8 -4 -9 1 -4 17 18 56 25
69 41 69 12 0 15 -6 10 -22z m963 -57 c1 -19 -1 -32 -4 -29 -9 8 -23 97 -16
103 8 9 19 -32 20 -74z m-1979 33 c0 -23 9 -29 39 -24 8 1 17 -4 21 -11 5 -8
10 -5 15 10 3 11 13 21 20 21 10 0 12 -6 8 -17 -6 -15 -4 -16 8 -6 9 7 20 8
29 3 7 -5 24 -4 38 1 37 14 44 -1 27 -57 -18 -58 -17 -54 -7 -54 4 0 8 9 9 20
3 39 28 75 51 74 12 0 22 2 22 6 0 3 9 6 20 6 24 0 24 -3 3 -52 -9 -22 -30
-76 -47 -121 -23 -58 -35 -80 -44 -74 -10 6 -4 32 23 109 19 56 35 105 35 109
-1 12 -48 -103 -67 -164 -15 -48 -26 -59 -55 -54 -5 0 -8 -4 -8 -9 0 -6 11
-10 25 -10 14 0 25 -5 25 -10 0 -6 -59 -10 -160 -9 -89 0 -160 5 -160 10 0 5
7 9 15 9 8 0 15 5 15 10 0 6 -7 10 -15 10 -8 0 -15 8 -15 19 0 13 -9 20 -30
24 -18 4 -28 12 -26 19 3 7 12 47 21 88 29 128 33 139 57 132 14 -3 19 -1 14
6 -5 8 -2 10 8 6 9 -3 16 -10 16 -15 0 -4 13 -3 30 2 17 6 27 16 23 22 -3 6
-1 7 5 3 7 -4 12 -18 12 -32z m2037 -6 c-3 -8 -6 -5 -6 6 -1 11 2 17 5 13 3
-3 4 -12 1 -19z m-2233 -76 c-1 -113 -6 -172 -14 -177 -9 -6 -23 242 -14 256
15 24 28 -14 28 -79z m666 66 c0 -25 -83 -243 -100 -263 -8 -9 -7 -14 2 -18 7
-2 10 -8 6 -12 -17 -18 -37 4 -33 37 3 26 2 29 -6 15 -6 -9 -14 -15 -20 -12
-5 4 -9 2 -9 -4 0 -16 -28 -1 -33 17 -3 12 -5 10 -6 -5 0 -13 -5 -23 -9 -23
-18 0 -19 12 -5 40 8 16 29 71 47 122 18 51 36 91 41 90 4 -2 12 3 17 12 13
23 38 20 38 -5 0 -11 -10 -42 -21 -69 -12 -27 -19 -57 -15 -65 3 -9 2 -14 -3
-11 -13 9 -21 -21 -12 -45 6 -18 12 -8 36 57 43 120 63 164 75 164 5 0 10 -10
10 -22z m160 5 c0 -7 9 -13 20 -13 10 0 23 -7 28 -16 8 -14 10 -14 21 0 21 25
34 19 27 -11 -5 -26 -4 -26 9 4 19 42 40 55 33 20 -3 -15 -1 -24 3 -21 5 3 9
12 9 20 0 8 5 14 10 14 23 0 22 -34 -3 -98 -14 -37 -30 -83 -36 -102 -8 -25
-17 -36 -31 -36 -15 0 -19 5 -14 21 3 11 10 24 15 30 5 5 9 18 9 30 -1 11 -12
-7 -25 -39 -26 -63 -31 -81 -15 -56 8 12 10 10 10 -8 0 -15 -4 -21 -12 -16 -6
4 -68 8 -137 9 -69 1 -129 3 -133 4 -15 2 -8 31 33 140 29 79 47 112 61 117
11 3 22 4 24 1 3 -3 17 1 31 8 31 16 63 15 63 -2z m1218 -49 l-3 -39 -5 47
c-3 26 -1 43 3 39 5 -5 7 -26 5 -47z m-977 -92 c-32 -128 -33 -129 -62 -129
-16 0 -29 5 -29 11 0 6 -4 5 -9 -3 -5 -8 -7 -21 -3 -29 3 -9 0 -13 -8 -10 -22
7 -20 39 4 103 13 33 34 88 46 122 20 56 25 62 54 65 17 2 33 2 35 1 2 -1 -11
-60 -28 -131z m-3163 103 c-1 -14 -6 -25 -10 -25 -4 0 -8 11 -8 25 0 14 4 25
10 25 5 0 9 -11 8 -25z m4540 -52 c-1 -40 -3 -53 -5 -33 -3 19 -10 38 -16 42
-9 6 -9 8 1 8 6 0 12 8 12 18 0 14 -2 15 -10 2 -8 -12 -10 -11 -10 8 0 13 6
22 15 22 12 0 15 -13 13 -67z m745 -13 c-8 -9 -23 25 -22 50 0 22 2 21 13 -10
8 -19 11 -37 9 -40z m-844 -107 c1 -32 -3 -43 -14 -43 -10 0 -14 12 -13 43 0
24 -3 67 -7 96 -5 41 -4 56 6 62 11 7 15 -5 20 -54 4 -34 7 -81 8 -104z
m-3169 147 c0 -5 -7 -7 -15 -4 -9 4 -15 0 -15 -10 0 -9 -4 -16 -10 -16 -5 0
-10 9 -10 20 0 15 7 20 25 20 14 0 25 -4 25 -10z m-4022 -102 c-1 -26 0 -48 5
-48 11 0 9 -38 -3 -45 -5 -3 -10 2 -10 12 0 11 -5 24 -11 30 -9 9 -9 20 0 44
6 17 12 50 12 73 2 33 3 35 6 12 3 -16 3 -51 1 -78z m4267 93 l40 -9 -40 -1
c-22 0 -55 -5 -73 -10 -17 -5 -32 -6 -32 -1 0 5 -24 13 -52 18 -53 10 -53 10
32 10 47 1 103 -3 125 -7z m2349 -6 c-4 -8 -11 -12 -16 -9 -6 4 -5 10 3 15 19
12 19 11 13 -6z m-6574 -26 c0 -11 -4 -17 -10 -14 -5 3 -10 13 -10 21 0 8 5
14 10 14 6 0 10 -9 10 -21z m509 -12 c0 -21 -1 -21 -9 -2 -12 28 -12 37 0 30
6 -3 10 -16 9 -28z m6478 1 c-3 -7 -5 -2 -5 12 0 14 2 19 5 13 2 -7 2 -19 0
-25z m-6857 -13 c0 -8 -4 -15 -9 -15 -13 0 -22 16 -14 24 11 11 23 6 23 -9z
m4142 -17 c-19 -19 -16 -62 4 -54 11 4 14 1 12 -11 -3 -19 -30 -28 -53 -20
-19 8 1 84 24 90 9 3 18 5 21 6 2 0 -1 -4 -8 -11z m-1612 -63 c0 -36 -4 -65
-8 -65 -4 0 -7 26 -6 58 3 71 3 72 9 72 3 0 5 -29 5 -65z m4348 -30 c-1 -31
-16 35 -16 70 0 25 2 24 9 -10 4 -22 8 -49 7 -60z m-7094 70 c3 -8 1 -15 -4
-15 -6 0 -10 7 -10 15 0 8 2 15 4 15 2 0 6 -7 10 -15z m4316 7 c0 -15 -13 -22
-24 -13 -6 5 -24 11 -41 14 -22 3 -17 4 18 6 26 0 47 -3 47 -7z m-4023 -54
c-3 -7 -5 -2 -5 12 0 14 2 19 5 13 2 -7 2 -19 0 -25z m-381 -23 c8 -21 -4 -67
-16 -60 -13 8 -13 75 0 75 6 0 13 -7 16 -15z m4771 9 c-3 -3 -12 -4 -19 -1 -8
3 -5 6 6 6 11 1 17 -2 13 -5z m-4127 -32 c0 -15 -6 -17 -35 -14 -44 5 -45 19
-2 25 17 2 33 5 35 5 1 1 2 -6 2 -16z m-580 -2 c0 -5 -9 -10 -20 -10 -11 0
-20 5 -20 10 0 6 9 10 20 10 11 0 20 -4 20 -10z m500 0 c0 -5 -7 -10 -16 -10
-8 0 -12 5 -9 10 3 6 10 10 16 10 5 0 9 -4 9 -10z m5340 0 c0 -5 -2 -10 -4
-10 -3 0 -8 5 -11 10 -3 6 -1 10 4 10 6 0 11 -4 11 -10z m-3350 -20 c0 -5 -7
-10 -15 -10 -8 0 -15 5 -15 10 0 6 7 10 15 10 8 0 15 -4 15 -10z m2850 -10 c0
-5 -7 -10 -15 -10 -8 0 -15 5 -15 10 0 6 7 10 15 10 8 0 15 -4 15 -10z m40 0
c0 -5 -4 -10 -10 -10 -5 0 -10 5 -10 10 0 6 5 10 10 10 6 0 10 -4 10 -10z m45
0 c3 -5 -3 -10 -15 -10 -12 0 -18 5 -15 10 3 6 10 10 15 10 5 0 12 -4 15 -10z
m261 -3 c4 -4 -30 -7 -75 -7 -45 0 -80 4 -77 8 6 10 142 9 152 -1z m104 2 c0
-5 -13 -9 -30 -9 -16 0 -30 4 -30 8 0 5 14 9 30 10 17 0 30 -4 30 -9z m160 -7
c0 -9 -6 -12 -16 -8 -9 3 -22 6 -30 6 -8 0 -14 4 -14 8 0 5 14 9 30 9 19 0 30
-5 30 -15z m-907 -24 c-6 -11 -51 -10 -57 0 -3 5 10 8 29 8 18 -1 31 -4 28 -8z
m44 -4 c-3 -3 -12 -4 -19 -1 -8 3 -5 6 6 6 11 1 17 -2 13 -5z m170 -10 c-3 -3
-12 -4 -19 -1 -8 3 -5 6 6 6 11 1 17 -2 13 -5z m-2827 -75 c0 -18 -9 -19 -170
-19 -164 0 -170 1 -170 20 0 20 5 21 170 20 160 -2 170 -3 170 -21z m1500 -9
c0 -16 -2 -30 -4 -30 -2 0 -6 14 -8 30 -3 17 -1 30 4 30 4 0 8 -13 8 -30z m80
0 c0 -25 -4 -30 -24 -30 -17 0 -23 5 -21 18 1 9 -2 23 -8 30 -7 9 -2 12 22 12
28 0 31 -3 31 -30z m160 -1 c0 -28 -2 -29 -46 -29 -44 0 -46 1 -42 25 3 13 0
26 -6 29 -6 2 13 4 42 4 51 0 52 -1 52 -29z m366 -94 c27 -38 44 -66 38 -62
-6 3 -35 41 -64 84 -29 43 -46 71 -38 63 8 -8 37 -46 64 -85z m-1434 25 c71 0
78 -2 78 -20 0 -19 -7 -20 -93 -20 -52 0 -128 3 -170 6 -68 6 -77 9 -77 27 0
19 4 20 92 13 50 -3 126 -6 170 -6z m-1542 -71 c0 -41 -14 -53 -25 -19 -3 11
-11 20 -16 20 -6 0 -7 -4 -4 -10 3 -5 1 -10 -4 -10 -6 0 -11 7 -11 15 0 8 6
15 14 15 7 0 16 9 19 21 9 33 27 12 27 -32z m5788 39 c-6 -18 -28 -21 -28 -4
0 9 7 16 16 16 9 0 14 -5 12 -12z m-6150 -83 c0 -29 0 -29 -8 -5 -4 14 -8 36
-8 50 -1 23 0 23 8 5 5 -11 8 -33 8 -50z m6162 46 c0 -6 -5 -13 -11 -16 -15
-10 -61 4 -54 15 8 13 65 13 65 1z m-4307 -28 l127 -6 0 -28 0 -29 -127 6
c-198 8 -213 11 -213 40 0 28 2 28 213 17z m-3069 -45 c3 -13 6 -33 6 -46 0
-19 -5 -22 -30 -20 -33 2 -35 10 -19 57 13 36 34 41 43 9z m3552 -55 c-3 -8
-6 -28 -6 -44 0 -16 -5 -29 -10 -29 -6 0 -10 6 -9 13 4 33 -2 57 -16 57 -8 0
-15 -7 -15 -15 0 -8 -5 -15 -11 -15 -6 0 -9 6 -6 14 4 9 -3 16 -18 18 -24 5
-41 -14 -29 -33 3 -5 0 -9 -5 -9 -6 0 -11 9 -11 19 0 19 -23 35 -34 24 -3 -4
-6 -20 -7 -37 -1 -30 -1 -30 -9 -6 -20 64 -13 68 118 62 60 -3 72 -6 68 -19z
m100 1 c-3 -9 -6 -29 -6 -45 0 -16 -5 -29 -11 -29 -7 0 -10 14 -7 35 4 34 3
35 -29 35 -18 0 -33 5 -33 10 0 6 21 10 46 10 38 0 45 -3 40 -16z m748 8 c3
-5 -1 -9 -9 -9 -8 0 -12 4 -9 9 3 4 7 8 9 8 2 0 6 -4 9 -8z m41 -2 c3 -5 2
-10 -4 -10 -5 0 -13 5 -16 10 -3 6 -2 10 4 10 5 0 13 -4 16 -10z m-105 -32 c0
-35 -12 -30 -17 7 -2 14 1 25 7 25 5 0 10 -14 10 -32z m166 7 c2 -19 -3 -25
-18 -25 -13 0 -18 5 -15 14 3 7 0 19 -6 25 -8 8 -5 11 14 11 19 0 24 -6 25
-25z m-2948 3 c-6 -18 -28 -21 -28 -4 0 9 7 16 16 16 9 0 14 -5 12 -12z m5739
-10 c-3 -8 -6 -5 -6 6 -1 11 2 17 5 13 3 -3 4 -12 1 -19z m-5827 8 c0 -2 3
-11 6 -19 3 -8 -1 -17 -9 -20 -10 -4 -16 3 -20 19 -3 16 0 24 9 24 8 0 14 -2
14 -4z m2130 -18 c0 -16 -3 -19 -11 -11 -6 6 -8 16 -5 22 11 17 16 13 16 -11z
m110 2 c0 -11 -4 -20 -10 -20 -5 0 -10 9 -10 20 0 11 5 20 10 20 6 0 10 -9 10
-20z m740 5 c0 -8 -6 -15 -13 -15 -8 0 -14 7 -14 15 0 8 6 15 14 15 7 0 13 -7
13 -15z m-2944 -22 c-10 -10 -19 5 -10 18 6 11 8 11 12 0 2 -7 1 -15 -2 -18z
m2904 18 c0 -11 -39 -21 -45 -11 -2 4 -2 10 2 14 10 9 43 7 43 -3z m-2860 -21
c0 -5 -4 -10 -10 -10 -5 0 -10 5 -10 10 0 6 5 10 10 10 6 0 10 -4 10 -10z
m3180 -10 c0 -5 -2 -10 -4 -10 -3 0 -8 5 -11 10 -3 6 -1 10 4 10 6 0 11 -4 11
-10z m155 -18 c-3 -3 -11 0 -18 7 -9 10 -8 11 6 5 10 -3 15 -9 12 -12z m2828
11 c-7 -2 -19 -2 -25 0 -7 3 -2 5 12 5 14 0 19 -2 13 -5z m-7256 -45 c-3 -7
-5 -2 -5 12 0 14 2 19 5 13 2 -7 2 -19 0 -25z m3038 22 c3 -5 1 -10 -4 -10 -6
0 -11 5 -11 10 0 6 2 10 4 10 3 0 8 -4 11 -10z m165 2 c0 -13 -12 -22 -22 -16
-10 6 -1 24 13 24 5 0 9 -4 9 -8z m1070 -24 c0 -22 -3 -29 -10 -22 -18 18 -20
54 -4 54 9 0 14 -11 14 -32z m-1387 15 c-7 -2 -19 -2 -25 0 -7 3 -2 5 12 5 14
0 19 -2 13 -5z m4372 -13 c-8 -13 -42 -13 -50 0 -4 6 7 10 25 10 18 0 29 -4
25 -10z m-2828 -6 c-3 -3 -12 -4 -19 -1 -8 3 -5 6 6 6 11 1 17 -2 13 -5z m330
0 c-3 -3 -12 -4 -19 -1 -8 3 -5 6 6 6 11 1 17 -2 13 -5z"/>
<path d="M4921 3064 c0 -11 3 -14 6 -6 3 7 2 16 -1 19 -3 4 -6 -2 -5 -13z"/>
<path d="M4900 3030 c-1 -8 -2 -25 -2 -37 1 -13 -4 -23 -10 -23 -9 0 -9 -3 0
-12 18 -18 24 -5 19 43 -2 24 -5 37 -7 29z"/>
<path d="M3556 3014 c-4 -9 -4 -19 -1 -22 2 -3 7 3 11 12 4 9 4 19 1 22 -2 3
-7 -3 -11 -12z"/>
<path d="M3509 2993 c0 -5 -2 -17 -4 -27 -5 -28 7 -43 16 -20 11 28 11 54 -1
54 -5 0 -10 -3 -11 -7z"/>
<path d="M4731 2984 c0 -11 3 -14 6 -6 3 7 2 16 -1 19 -3 4 -6 -2 -5 -13z"/>
<path d="M3550 2943 c0 -21 3 -24 9 -14 5 8 7 20 4 28 -8 21 -13 15 -13 -14z"/>
<path d="M4918 2943 c-2 -10 -1 -29 3 -43 6 -20 7 -17 8 18 1 44 -4 54 -11 25z"/>
<path d="M4731 2934 c0 -11 3 -14 6 -6 3 7 2 16 -1 19 -3 4 -6 -2 -5 -13z"/>
<path d="M4916 2855 c-3 -8 -1 -15 4 -15 6 0 10 7 10 15 0 8 -2 15 -4 15 -2 0
-6 -7 -10 -15z"/>
<path d="M4916 2822 c-2 -4 -1 -14 5 -22 7 -12 9 -10 9 8 0 23 -5 28 -14 14z"/>
<path d="M3962 2780 c0 -14 2 -19 5 -12 2 6 2 18 0 25 -3 6 -5 1 -5 -13z"/>
<path d="M3550 2736 c0 -14 5 -26 10 -26 6 0 10 9 10 19 0 11 -4 23 -10 26 -6
4 -10 -5 -10 -19z"/>
<path d="M5233 3000 c0 -30 2 -43 4 -27 2 15 2 39 0 55 -2 15 -4 2 -4 -28z"/>
<path d="M5232 2900 c0 -14 2 -19 5 -12 2 6 2 18 0 25 -3 6 -5 1 -5 -13z"/>
<path d="M8188 3083 c6 -2 18 -2 25 0 6 3 1 5 -13 5 -14 0 -19 -2 -12 -5z"/>
<path d="M750 2796 c0 -31 6 -34 13 -6 3 11 1 23 -4 26 -5 3 -9 -6 -9 -20z"/>
<path d="M750 2690 c0 -5 5 -10 10 -10 6 0 10 5 10 10 0 6 -4 10 -10 10 -5 0
-10 -4 -10 -10z"/>
<path d="M2808 3013 c7 -3 16 -2 19 1 4 3 -2 6 -13 5 -11 0 -14 -3 -6 -6z"/>
<path d="M3325 2290 c-5 -8 -12 -81 -15 -162 -5 -141 -4 -147 13 -130 15 16
17 35 15 163 -2 96 -6 139 -13 129z"/>
<path d="M2291 2124 c0 -11 3 -14 6 -6 3 7 2 16 -1 19 -3 4 -6 -2 -5 -13z"/>
<path d="M2292 2030 c0 -19 2 -27 5 -17 2 9 2 25 0 35 -3 9 -5 1 -5 -18z"/>
<path d="M1912 2015 c0 -16 2 -22 5 -12 2 9 2 23 0 30 -3 6 -5 -1 -5 -18z"/>
<path d="M2588 1943 c7 -3 16 -2 19 1 4 3 -2 6 -13 5 -11 0 -14 -3 -6 -6z"/>
<path d="M5102 2395 c0 -16 2 -22 5 -12 2 9 2 23 0 30 -3 6 -5 -1 -5 -18z"/>
<path d="M8280 2076 c0 -9 7 -16 16 -16 17 0 14 22 -4 28 -7 2 -12 -3 -12 -12z"/>
<path d="M8400 2075 c0 -10 7 -15 18 -13 21 4 19 22 -2 26 -10 2 -16 -3 -16
-13z"/>
<path d="M3476 1602 c-10 -17 -19 -337 -9 -327 10 10 28 335 19 335 -3 0 -7
-4 -10 -8z"/>
<path d="M4446 1589 c-10 -13 -14 -24 -8 -28 12 -8 21 -93 22 -203 0 -57 4
-88 11 -88 11 0 11 255 -1 313 l-5 28 -19 -22z"/>
<path d="M4595 1594 c-19 -14 -19 -16 -2 -28 15 -12 17 -32 17 -155 0 -78 4
-140 8 -137 7 4 5 326 -1 333 -1 1 -11 -5 -22 -13z"/>
<path d="M4761 1598 c-1 -21 -46 -25 -54 -5 -3 6 -6 2 -6 -11 -1 -20 3 -23 29
-18 l30 4 2 -56 1 -57 6 58 c3 31 10 58 16 60 5 1 10 8 11 15 2 10 -1 10 -11
2 -10 -8 -14 -7 -18 7 -4 17 -5 17 -6 1z"/>
<path d="M3650 1586 c0 -8 5 -18 10 -21 6 -3 10 3 10 14 0 12 -4 21 -10 21 -5
0 -10 -6 -10 -14z"/>
<path d="M3803 1593 c-16 -6 -17 -33 -2 -33 7 0 10 -33 8 -97 -1 -54 -1 -120
1 -148 l3 -50 7 50 c5 28 9 94 9 148 1 57 5 97 11 97 6 0 11 -57 12 -147 l2
-148 3 140 c3 110 7 142 18 151 17 13 10 44 -10 44 -7 0 -16 -6 -19 -12 -5
-10 -7 -10 -12 0 -6 13 -11 14 -31 5z"/>
<path d="M3940 1581 c0 -11 4 -21 9 -21 18 0 21 18 6 30 -13 10 -15 9 -15 -9z"/>
<path d="M3980 1586 c0 -8 5 -18 10 -21 6 -3 10 3 10 14 0 12 -4 21 -10 21 -5
0 -10 -6 -10 -14z"/>
<path d="M4045 1590 c-4 -6 -11 -8 -16 -5 -5 4 -8 -54 -7 -147 l2 -153 3 141
c3 136 4 142 23 137 17 -4 20 -14 20 -57 0 -98 13 -246 22 -246 4 0 8 67 8
149 0 110 3 151 13 154 8 3 6 10 -8 21 -23 18 -51 21 -60 6z"/>
<path d="M4132 1470 l2 -135 6 117 c4 89 8 115 17 110 9 -5 13 -52 16 -152 l3
-145 2 168 c2 154 -3 189 -24 156 -4 -8 -9 -7 -15 2 -5 8 -8 -43 -7 -121z"/>
<path d="M4210 1434 c0 -136 2 -164 14 -164 12 0 14 23 9 148 -3 81 -3 144 1
141 4 -4 10 -73 15 -155 l8 -149 2 171 1 172 -25 0 -25 0 0 -164z"/>
<path d="M4311 1438 c-1 -161 0 -167 20 -173 12 -4 25 -3 30 2 4 4 0 61 -11
128 -24 146 -24 165 -5 165 8 0 15 5 15 11 0 6 -8 8 -19 4 -14 -4 -21 0 -24
12 -3 10 -5 -57 -6 -149z"/>
<path d="M4497 1586 c-4 -10 -5 -21 -2 -24 9 -9 17 6 13 25 -3 17 -4 17 -11
-1z"/>
<path d="M4557 1593 c-10 -10 -8 -33 2 -33 6 0 9 9 8 20 -1 23 -1 22 -10 13z"/>
<path d="M4660 1515 c0 -47 4 -85 8 -85 4 0 6 34 5 75 -3 47 0 75 7 75 5 0 10
5 10 10 0 6 -7 10 -15 10 -12 0 -15 -16 -15 -85z"/>
<path d="M4728 1593 c7 -3 16 -2 19 1 4 3 -2 6 -13 5 -11 0 -14 -3 -6 -6z"/>
<path d="M4820 1586 c0 -9 7 -16 16 -16 17 0 14 22 -4 28 -7 2 -12 -3 -12 -12z"/>
<path d="M2966 1577 c-13 -10 -15 -16 -8 -21 7 -4 12 -17 13 -29 1 -16 3 -13
10 11 13 44 8 56 -15 39z"/>
<path d="M3012 1585 c-1 -5 -20 -77 -41 -160 -22 -82 -36 -153 -32 -157 4 -4
21 -10 38 -14 42 -8 45 2 41 191 -2 83 -5 146 -6 140z"/>
<path d="M4633 1575 c0 -8 4 -15 9 -15 4 0 8 4 8 9 0 6 -4 12 -8 15 -5 3 -9
-1 -9 -9z"/>
<path d="M2120 1570 c0 -5 5 -10 10 -10 6 0 10 5 10 10 0 6 -4 10 -10 10 -5 0
-10 -4 -10 -10z"/>
<path d="M3505 1570 c3 -5 8 -10 11 -10 2 0 4 5 4 10 0 6 -5 10 -11 10 -5 0
-7 -4 -4 -10z"/>
<path d="M3755 1570 c3 -5 8 -10 11 -10 2 0 4 5 4 10 0 6 -5 10 -11 10 -5 0
-7 -4 -4 -10z"/>
<path d="M3900 1570 c0 -5 7 -10 15 -10 8 0 15 5 15 10 0 6 -7 10 -15 10 -8 0
-15 -4 -15 -10z"/>
<path d="M4270 1570 c0 -5 5 -10 10 -10 6 0 10 5 10 10 0 6 -4 10 -10 10 -5 0
-10 -4 -10 -10z"/>
<path d="M4521 1564 c0 -11 3 -14 6 -6 3 7 2 16 -1 19 -3 4 -6 -2 -5 -13z"/>
<path d="M2125 1541 c-3 -2 -5 -9 -5 -15 0 -6 5 -4 10 4 5 8 10 10 10 4 0 -5
18 -11 40 -12 28 -2 40 1 40 11 0 9 -14 13 -45 13 -25 0 -48 -2 -50 -5z"/>
<path d="M4051 1534 c0 -11 3 -14 6 -6 3 7 2 16 -1 19 -3 4 -6 -2 -5 -13z"/>
<path d="M4051 1474 c0 -11 3 -14 6 -6 3 7 2 16 -1 19 -3 4 -6 -2 -5 -13z"/>
<path d="M3784 1375 c0 -60 1 -84 3 -52 2 32 2 81 0 110 -2 29 -3 3 -3 -58z"/>
<path d="M4051 1414 c0 -11 3 -14 6 -6 3 7 2 16 -1 19 -3 4 -6 -2 -5 -13z"/>
<path d="M4661 1354 c0 -11 3 -14 6 -6 3 7 2 16 -1 19 -3 4 -6 -2 -5 -13z"/>
<path d="M3388 1321 c-2 -16 -1 -37 3 -47 5 -13 8 -3 8 29 1 53 -5 62 -11 18z"/>
<path d="M3410 1288 c0 -19 2 -20 10 -8 13 19 13 30 0 30 -5 0 -10 -10 -10
-22z"/>
<path d="M928 1253 c7 -3 16 -2 19 1 4 3 -2 6 -13 5 -11 0 -14 -3 -6 -6z"/>
<path d="M1038 1253 c7 -3 16 -2 19 1 4 3 -2 6 -13 5 -11 0 -14 -3 -6 -6z"/>
<path d="M1108 1253 c6 -2 18 -2 25 0 6 3 1 5 -13 5 -14 0 -19 -2 -12 -5z"/>
<path d="M2638 1113 c6 -2 18 -2 25 0 6 3 1 5 -13 5 -14 0 -19 -2 -12 -5z"/>
<path d="M3158 1093 c6 -2 18 -2 25 0 6 3 1 5 -13 5 -14 0 -19 -2 -12 -5z"/>
<path d="M3225 1010 c-3 -5 -1 -10 4 -10 6 0 11 5 11 10 0 6 -2 10 -4 10 -3 0
-8 -4 -11 -10z"/>
<path d="M6512 685 c0 -16 2 -22 5 -12 2 9 2 23 0 30 -3 6 -5 -1 -5 -18z"/>
<path d="M6370 564 c0 -7 15 -10 38 -8 20 2 43 3 51 3 8 1 11 4 7 9 -12 12
-96 9 -96 -4z"/>
<path d="M910 784 c0 -14 4 -23 10 -19 6 3 10 15 10 26 0 10 -4 19 -10 19 -5
0 -10 -12 -10 -26z"/>
<path d="M5479 684 c-5 -15 -8 -29 -5 -31 2 -2 8 10 14 26 13 38 5 41 -9 5z"/>
<path d="M5286 581 c-4 -5 -2 -12 3 -15 5 -4 12 -2 15 3 4 5 2 12 -3 15 -5 4
-12 2 -15 -3z"/>
<path d="M5380 570 c0 -13 5 -17 20 -13 11 3 20 9 20 13 0 4 -9 10 -20 13 -15
4 -20 0 -20 -13z"/>
<path d="M5238 573 c6 -2 18 -2 25 0 6 3 1 5 -13 5 -14 0 -19 -2 -12 -5z"/>
<path d="M5960 778 c0 -4 4 -8 9 -8 6 0 12 4 15 8 3 5 -1 9 -9 9 -8 0 -15 -4
-15 -9z"/>
<path d="M6041 749 c-6 -18 -9 -34 -7 -36 2 -2 9 10 15 28 6 18 9 34 7 36 -2
2 -9 -10 -15 -28z"/>
<path d="M6109 683 c-21 -58 -21 -58 -9 -47 11 11 32 74 24 74 -2 0 -9 -12
-15 -27z"/>
<path d="M4300 419 c0 -5 5 -7 10 -4 6 3 10 8 10 11 0 2 -4 4 -10 4 -5 0 -10
-5 -10 -11z"/>
<path d="M430 929 c0 -5 5 -7 10 -4 6 3 10 8 10 11 0 2 -4 4 -10 4 -5 0 -10
-5 -10 -11z"/>
<path d="M1881 894 c0 -11 3 -14 6 -6 3 7 2 16 -1 19 -3 4 -6 -2 -5 -13z"/>
<path d="M3530 855 c0 -19 4 -35 8 -35 4 0 6 16 4 35 -2 19 -6 35 -8 35 -2 0
-4 -16 -4 -35z"/>
<path d="M1882 850 c0 -14 2 -19 5 -12 2 6 2 18 0 25 -3 6 -5 1 -5 -13z"/>
<path d="M3592 840 c0 -14 2 -19 5 -12 2 6 2 18 0 25 -3 6 -5 1 -5 -13z"/>
<path d="M1541 794 c0 -11 3 -14 6 -6 3 7 2 16 -1 19 -3 4 -6 -2 -5 -13z"/>
<path d="M625 790 c3 -5 8 -10 11 -10 2 0 4 5 4 10 0 6 -5 10 -11 10 -5 0 -7
-4 -4 -10z"/>
<path d="M1372 720 c0 -19 2 -27 5 -17 2 9 2 25 0 35 -3 9 -5 1 -5 -18z"/>
<path d="M557 653 c-10 -9 -9 -23 1 -23 5 0 9 7 9 15 0 17 -1 18 -10 8z"/>
<path d="M1383 600 c0 -30 2 -43 4 -27 2 15 2 39 0 55 -2 15 -4 2 -4 -28z"/>
<path d="M3030 635 c0 -8 2 -15 4 -15 2 0 6 7 10 15 3 8 1 15 -4 15 -6 0 -10
-7 -10 -15z"/>
<path d="M1541 608 c-1 -21 4 -38 9 -38 11 0 11 14 0 50 -7 22 -8 21 -9 -12z"/>
<path d="M3030 586 c0 -9 7 -16 16 -16 9 0 14 5 12 12 -6 18 -28 21 -28 4z"/>
<path d="M1650 570 c0 -11 7 -20 15 -20 8 0 15 9 15 20 0 11 -7 20 -15 20 -8
0 -15 -9 -15 -20z"/>
<path d="M3880 553 c0 -7 7 -13 15 -13 8 0 15 6 15 13 0 8 -7 14 -15 14 -8 0
-15 -6 -15 -14z"/>
<path d="M3960 560 c0 -5 5 -10 10 -10 6 0 10 5 10 10 0 6 -4 10 -10 10 -5 0
-10 -4 -10 -10z"/>
<path d="M208 513 c6 -2 18 -2 25 0 6 3 1 5 -13 5 -14 0 -19 -2 -12 -5z"/>
<path d="M250 510 c0 -5 12 -10 26 -10 14 0 23 4 19 10 -3 6 -15 10 -26 10
-10 0 -19 -4 -19 -10z"/>
<path d="M3972 460 c0 -14 2 -19 5 -12 2 6 2 18 0 25 -3 6 -5 1 -5 -13z"/>
<path d="M2392 215 c0 -16 2 -22 5 -12 2 9 2 23 0 30 -3 6 -5 -1 -5 -18z"/>
<path d="M4113 80 c0 -47 2 -68 4 -48 3 30 9 39 29 44 32 8 32 40 0 48 -14 3
-27 14 -29 24 -3 9 -4 -21 -4 -68z"/>
<path d="M2402 120 c0 -19 2 -27 5 -17 2 9 2 25 0 35 -3 9 -5 1 -5 -18z"/>
<path d="M3930 75 l0 -75 49 0 49 0 4 62 c2 35 0 69 -5 76 -5 6 -29 12 -53 12
l-44 0 0 -75z"/>
<path d="M2013 123 c3 -10 8 -35 12 -56 l6 -37 60 0 c53 0 60 2 55 18 -3 9 -8
34 -12 55 l-6 37 -60 0 c-52 0 -59 -2 -55 -17z m37 -33 c0 -16 -4 -30 -10 -30
-5 0 -10 14 -10 30 0 17 5 30 10 30 6 0 10 -13 10 -30z m31 -23 c-8 -8 -11 -3
-11 19 1 25 2 27 11 11 8 -14 8 -22 0 -30z m39 16 c0 -22 -2 -25 -10 -13 -13
20 -13 40 0 40 6 0 10 -12 10 -27z"/>
<path d="M1978 105 c6 -32 12 -32 12 0 0 14 -4 25 -9 25 -4 0 -6 -11 -3 -25z"/>
<path d="M1990 56 c0 -16 18 -31 27 -22 3 3 -2 12 -11 21 -14 14 -16 14 -16 1z"/>
<path d="M1421 24 c0 -11 3 -14 6 -6 3 7 2 16 -1 19 -3 4 -6 -2 -5 -13z"/>
</g>
</svg>
